<svg viewBox="0 0 57.25 50" xmlns="http://www.w3.org/2000/svg"><g fill="none" stroke-miterlimit="10" stroke-width="2"><path d="m56 13.17-27.37-11.9-27.38 11.9" stroke="#000" stroke-linecap="round"/><path d="m54.81 17.93h-52.37" stroke="#000"/><path d="m10.77 40.55v-17.86h-7.14v22.62" stroke="#000"/><path d="m8.39 44.12h40.47" stroke="#000"/><path d="m2.44 48.88h52.37" stroke="#000"/><circle cx="28.63" cy="10.79" r="3.57" stroke="#be0000"/><g stroke="#000"><path d="m3.63 28.64h3.57"/><path d="m3.63 34.59h3.57"/><path d="m3.63 40.55h3.57"/><path d="m46.48 40.55v-17.86h7.14v22.62"/><path d="m53.62 28.64h-3.57"/><path d="m53.62 34.59h-3.57"/><path d="m53.62 40.55h-3.57"/></g><path d="m15.53 40.55v-15.47c0-1.31 1.07-2.38 2.38-2.38s2.38 1.07 2.38 2.38v15.47" stroke="#be0000"/><path d="m26.25 40.55v-15.47c0-1.31 1.07-2.38 2.38-2.38s2.38 1.07 2.38 2.38v15.47" stroke="#be0000"/><path d="m36.96 40.55v-15.47c0-1.31 1.07-2.38 2.38-2.38s2.38 1.07 2.38 2.38v15.47" stroke="#be0000"/></g></svg>