<svg viewBox="0 0 57.77 50" xmlns="http://www.w3.org/2000/svg"><g fill="none" stroke-miterlimit="10" stroke-width="2"><path d="m24.07 30.14h14.46l8.79 8.79c.76.76 2.06.22 2.06-.85v-7.93h3.61c2 0 3.61-1.62 3.61-3.61v-21.7c0-2-1.62-3.61-3.61-3.61h-28.92c-2 0-3.61 1.62-3.61 3.61v21.69c0 2 1.62 3.61 3.61 3.61z" stroke="#000"/><g stroke="#be0000"><path d="m18.04 10.86h-13.25c-2 0-3.61 1.62-3.61 3.61v21.69c0 2 1.62 3.61 3.61 3.61h4.82v7.93c0 1.07 1.3 1.61 2.06.85l8.79-8.79h9.64c2 0 3.61-1.62 3.61-3.61v-3.61"/><path d="m32.5 16.89 4.82 4.82 8.43-10.85"/></g></g></svg>