<svg viewBox="0 0 59.76 50" xmlns="http://www.w3.org/2000/svg"><g fill="none" stroke-width="2"><path d="m3.63 48.9c-2.01 0-3.24-2.21-2.19-3.92l26.25-42.65c1-1.63 3.37-1.63 4.38 0l26.25 42.65c1.05 1.71-.18 3.92-2.19 3.92z" stroke="#000" stroke-miterlimit="10"/><g stroke="#be0000" stroke-linejoin="round"><path d="m29.88 36.04c-2.13 0-3.86 1.73-3.86 3.86s1.73 3.86 3.86 3.86 3.86-1.73 3.86-3.86-1.73-3.86-3.86-3.86z"/><path d="m29.88 14.19c-2.13 0-3.86 1.66-3.86 4 0 4.03.96 8.97 1.29 10.14.32 1.16 1.17 2.57 2.57 2.57s2.25-1.41 2.57-2.57 1.29-6.11 1.29-10.14c0-2.34-1.73-4-3.86-4z"/></g></g></svg>