<svg viewBox="0 0 52.46 50" xmlns="http://www.w3.org/2000/svg"><g fill="none" stroke-linejoin="round" stroke-width="2"><path d="m6.71 31.51c0-.29-1.05-.45-1.72-.45-2.04 0-3.7 1.66-3.7 3.7v-27.12c0-2.04 1.66-3.25 3.7-3.25.67 0 1.72.32 1.72 1.08v26.03z" stroke="#000"/><path d="m45.75 31.51c0-.29 1.05-.45 1.72-.45 2.04 0 3.7 1.66 3.7 3.7v-27.12c0-2.04-1.66-3.25-3.7-3.25-.67 0-1.72.32-1.72 1.08v26.03z" stroke="#000"/><path d="m31.65 8.73h-23.86" stroke="#000"/><path d="m44.9 8.73h-5.43" stroke="#000"/><path d="m51.18 34.76c0 2.4-1.94 4.34-4.34 4.34h-41.22c-2.4 0-4.34-1.94-4.34-4.34" stroke="#000"/><g stroke="#be0000"><path d="m11.04 29.34v1.08h29.29v-29.28h-1.08z"/><path d="m34.91 27.17v3.25"/><path d="m29.48 27.17v3.25"/><path d="m24.06 27.17v3.25"/><path d="m18.64 27.17v3.25"/><path d="m33.82 15.24h1.09v8.68h-8.68v-1.09z"/><path d="m43.59 48.86h2.16l4.34-2.7-4.34-2.72h-2.16"/><path d="m43.59 48.86v-5.42"/><path d="m6.71 43.44h-3.25c-.6 0-1.08.49-1.08 1.08v3.25c0 .6.49 1.08 1.08 1.08h3.25"/><path d="m44.67 43.44h-37.96v5.42h37.96"/></g></g></svg>