<svg viewBox="0 0 51.29 50" xmlns="http://www.w3.org/2000/svg"><g fill="none" stroke-miterlimit="10" stroke-width="2"><g stroke="#000"><path d="m20.34 23.26v-4.25c0-2.6-6.47-4.25-8.5-4.25s-8.5 1.65-8.5 4.25v4.25"/><path d="m11.84 11.87c2.43 0 4.25-1.83 4.25-4.1v-2.43c0-2.26-1.82-4.1-4.25-4.1s-4.25 1.83-4.25 4.1v2.43c0 2.26 1.82 4.1 4.25 4.1z"/><path d="m34.15 23.26v-4.25c0-2.6-6.47-4.25-8.5-4.25-.88 0-2.59.31-4.25.87"/><path d="m25.65 11.87c2.43 0 4.25-1.83 4.25-4.1v-2.43c0-2.26-1.82-4.1-4.25-4.1s-4.25 1.83-4.25 4.1v2.43c0 2.26 1.82 4.1 4.25 4.1z"/><path d="m47.96 23.26v-4.25c0-2.6-6.47-4.25-8.5-4.25-.88 0-2.59.31-4.25.87"/><path d="m39.46 11.87c2.43 0 4.25-1.83 4.25-4.1v-2.43c0-2.26-1.82-4.1-4.25-4.1s-4.25 1.83-4.25 4.1v2.43c0 2.26 1.82 4.1 4.25 4.1z"/></g><path d="m1.21 23.26h48.87v4.25h-48.87z" stroke="#be0000"/><path d="m7.59 32.82h8.5v10.62h-8.5z" stroke="#000"/><path d="m21.4 32.82h8.5v10.62h-8.5z" stroke="#000"/><path d="m35.21 32.82h8.5v10.62h-8.5z" stroke="#000"/><path d="m47.96 29.63v19.13h-22.31-22.31v-19.13" stroke="#be0000"/></g></svg>