<svg id="a" xmlns="http://www.w3.org/2000/svg" viewBox="0 0 58.29 50"><defs><style>.b{stroke:#000}.b,.c,.d{fill:none;stroke-linejoin:round;stroke-width:2px}.b,.d{stroke-linecap:round}.c,.d{stroke:#be0000}</style></defs><path class="d" d="M4.76,37.8h29.26c1.35,0,2.44,1.09,2.44,2.44v6.09c0,1.35-1.09,2.44-2.44,2.44H4.76"/><path class="d" d="M4.76,37.8c1.35,0,2.44,1.09,2.44,2.44v6.09c0,1.35-1.09,2.44-2.44,2.44"/><path class="c" d="M36.35,47.26l15.95-13.26c.88-.76,1.22-.95,1.22-2.3v-6.52"/><path class="d" d="M2.33,15.86c1.35,0,2.44,1.09,2.44,2.44v6.09c0,1.35-1.09,2.44-2.44,2.44"/><path class="b" d="M7.2,26.83h30.47c1.35,0,2.44,1.09,2.44,2.44v6.09c0,1.35-1.09,2.44-2.44,2.44H7.2"/><path class="b" d="M8.42,26.83c1.35,0,2.44,1.09,2.44,2.44v6.09c0,1.35-1.09,2.44-2.44,2.44"/><path class="b" d="M39.8,36.8s16.21-13.9,16.63-14.26c.42-.35.74-1.1.74-1.81v-6.09c0-1.35-1.09-2.44-2.44-2.44h-4.88"/><path class="d" d="M33.26,26.16s16.62-14.25,17.04-14.6c.48-.45.78-1.08.78-1.79V3.67c0-1.35-1.09-2.44-2.44-2.44h-29.26L1.11,15.86h30.47c1.35,0,2.44,1.09,2.44,2.44v6.09c0,1.35-1.09,2.44-2.44,2.44H2.33"/></svg>