<svg id="a" xmlns="http://www.w3.org/2000/svg" viewBox="0 0 38.69 50"><defs><style>.b{stroke:#be0000;stroke-miterlimit:10}.b,.c{stroke-linecap:round}.b,.c,.d{fill:none;stroke-width:2px}.c,.d{stroke:#000;stroke-linejoin:round}</style></defs><path class="d" d="M27.95,43.45v1.65c0,2.08-1.68,3.76-3.76,3.76H4.94c-2.08,0-3.76-1.68-3.76-3.76V4.9c0-2.08,1.68-3.76,3.76-3.76h19.26c2.08,0,3.76,1.68,3.76,3.76v4.39"/><line class="c" x1="8.88" y1="5.18" x2="20.34" y2="5.18"/><line class="c" x1="13.01" y1="46.14" x2="16.68" y2="46.14"/><path class="b" d="M22.22,21.2l-7.06-7.06s-4.83,4.17-4.51,8.64c.44,6.22,10.03,17.28,17.55,16.77,6.16-.42,8.07-4.19,8.07-4.19l-7.05-6.8s-3.31,3.73-4.79,3.8-5.88-4.33-5.85-5.85c.04-1.51,3.63-5.32,3.63-5.32Z"/><path class="c" d="M25.22,13.48c5.21,0,12.29,6.87,12.29,11.73"/><path class="c" d="M24.48,17.71c4.09,0,9.65,5.39,9.65,9.21"/></svg>