<svg viewBox="0 0 54.66 50" xmlns="http://www.w3.org/2000/svg"><g fill="none" stroke-miterlimit="10" stroke-width="2"><path d="m24.29 24.21h12.15l6.38 7.29c.74.84 2.13.32 2.13-.8v-6.49h6.08c1.34 0 2.43-1.09 2.43-2.43v-18.23c0-1.34-1.09-2.43-2.43-2.43h-26.73c-1.34 0-2.43 1.09-2.43 2.43v18.23c0 1.34 1.09 2.43 2.43 2.43z" stroke="#be0000"/><path d="m18.22 16.92h-14.58c-1.34 0-2.43 1.09-2.43 2.43v19.44c0 1.34 1.09 2.43 2.43 2.43h4.86v6.49c0 1.12 1.39 1.64 2.13.8l6.38-7.29h10.94c1.34 0 2.43-1.09 2.43-2.43v-10.94" stroke="#000"/></g></svg>