<svg viewBox="0 0 41.88 50" xmlns="http://www.w3.org/2000/svg"><g fill="none" stroke-width="2"><g stroke-linejoin="round"><path d="m32.9 17.61 5.23 5.23c.96.96.96 2.52 0 3.49l-5.23 5.23" stroke="#be0000" stroke-linecap="round"/><path d="m22.18 28.32 4.36 4.36" stroke="#be0000" stroke-linecap="round"/><path d="m13.74 8.4v5.19h-12.45v-12.45h8.3" stroke="#000" stroke-linecap="round"/><path d="m4.4 7.37 3.12 3.11 7.26-9.34" stroke="#be0000"/><path d="m13.74 25v5.19h-12.45v-12.45h8.3" stroke="#000" stroke-linecap="round"/><path d="m4.4 23.96 3.12 3.11 7.26-9.33" stroke="#be0000"/><path d="m9.59 36.41h-8.3v12.45h12.45v-2.08" stroke="#000" stroke-linecap="round"/></g><path d="m12.53 42.33c.85-3.7 2.73-7.09 5.42-9.78l17.56-17.56c.96-.96 2.52-.96 3.49 0l.87.87c.96.96.96 2.52 0 3.49l-17.56 17.56c-2.69 2.69-6.07 4.56-9.78 5.42z" stroke="#000" stroke-linecap="round" stroke-miterlimit="10"/></g></svg>