<svg viewBox="0 0 39.64 50" xmlns="http://www.w3.org/2000/svg"><g fill="none" stroke-width="2"><g stroke="#000" stroke-miterlimit="10"><path d="m32.26 6.33h4.15c1.15 0 2.07.93 2.07 2.07v38.37c0 1.15-.93 2.07-2.07 2.07h-33.18c-1.15 0-2.07-.93-2.07-2.07v-38.36c0-1.15.93-2.07 2.07-2.07h4.15"/><path d="m32.26 10.48h2.08v34.22h-29.04v-34.22h2.08"/><path d="m27.08 5.3h-3.11c0-2.29-1.86-4.15-4.15-4.15s-4.15 1.86-4.15 4.15h-3.11c-1.72 0-3.11 1.39-3.11 3.11v3.11h20.74v-3.11c0-1.72-1.39-3.11-3.11-3.11z"/><path d="m19.82 4.26v2.07"/></g><path d="m10.49 19.81 2.64 2.27 3.58-4.34" stroke="#be0000" stroke-linejoin="round"/><path d="m10.49 28.11 2.64 2.26 3.58-4.33" stroke="#be0000" stroke-linejoin="round"/><path d="m10.49 36.41 2.64 2.26 3.58-4.34" stroke="#be0000" stroke-linejoin="round"/></g></svg>