<svg id="a" xmlns="http://www.w3.org/2000/svg" viewBox="0 0 48.58 50"><defs><style>.b{stroke-linejoin:round}.b,.c,.d,.e,.f{fill:none;stroke-width:2px}.b,.c,.e,.f{stroke:#000}.b,.f{stroke-linecap:square}.c{stroke-linecap:round}.c,.d,.e,.f{stroke-miterlimit:10}.d{stroke:#be0000}</style></defs><path class="f" d="M47.31,24.15h-7.31c-1.03,0-2.04-.31-2.9-.88l-.5-.34c-.86-.57-1.87-.88-2.9-.88h-7.93c-.75,0-1.48.27-2.05.76l-3,3.03s-1.55,1.57-3.1,3.2c1.58,1.58,3.29,1.68,4.77,1.18s3.42-1.9,3.42-1.9h2.66l3.9,3.63"/><path class="f" d="M39.37,39.02c.97-.97,2.17-1.26,3.75-1.26"/><path class="e" d="M32.38,31.97s5.43,5.7,6.99,7.05c1.57,1.35-.59,4.95-3.12,2.97-1.51-1.29-6.35-5.92-6.35-5.92"/><path class="e" d="M36.98,42.41c-.46,1.1-2.32,3.67-4.7,1.87-1.51-1.29-4.64-4.25-4.64-4.25"/><path class="e" d="M33.18,44.79c-1.08,2.18-2.97,3.05-4.68,1.7-1.2-.94-3.02-2.81-3.02-2.81"/><path class="e" d="M29.06,46.85c-.65,1.61-2.51,2.65-4.01,1.72-.87-.54-2.43-1.69-2.43-1.69"/><path class="b" d="M1.27,24.15h9.2c.83,0,1.63-.24,2.32-.7l1.03-.69c.69-.46,1.5-.7,2.32-.7h5.06c.46,0,.91.15,1.28.44l.9.61"/><path class="e" d="M13.09,40.49c.75-.73.62-1.76-.1-2.51h-.01c-.73-.76-1.93-.78-2.68-.06l-1.07,1.02c-.75.73-.77,1.93-.04,2.68.73.76,1.94.78,2.7.05"/><path class="e" d="M17.43,38.93h-.01c-.73-.76-1.93-.78-2.68-.06l-3.11,3.03c-.75.73-.77,1.93-.04,2.68.73.76,1.94.78,2.7.05l3.1-3.02c.75-.73.77-1.93.05-2.68Z"/><path class="e" d="M14.81,44.13c-.76.72-.79,1.92-.07,2.68.73.77,1.94.79,2.7.07l2.84-2.78c.75-.72.78-1.93.07-2.68h-.01c-.72-.77-1.92-.8-2.68-.08"/><path class="e" d="M18.78,45.56c-.75.73-.76,1.93-.03,2.68.74.76,1.95.77,2.7.03l.72-.7c.74-.73.76-1.94.03-2.68h-.01c-.73-.76-1.93-.77-2.68-.04"/><path class="c" d="M36.83,32.93c-2.49.51-3.12-.12-4.45-.96"/><path class="f" d="M9.14,39.03c-.66-.63-1.96-1.23-3.69-1.23"/><polyline class="e" points="38.94 19.97 38.94 1.14 11.73 1.14 7.55 5.32 7.55 21.02"/><polyline class="e" points="13.83 4.28 13.83 7.41 10.69 7.41"/><line class="d" x1="16.96" y1="12.65" x2="31.61" y2="12.65"/><line class="d" x1="16.96" y1="16.83" x2="25.33" y2="16.83"/></svg>