<svg viewBox="0 0 54.4 50" xmlns="http://www.w3.org/2000/svg"><g fill="none" stroke-miterlimit="10" stroke-width="2"><path d="m37.84 5.89-35.43 11.76" stroke="#be0000"/><path d="m39.62 11.26-35.43 11.75" stroke="#be0000"/><rect height="24.89" rx="2.26" stroke="#be0000" width="37.33" x="15.85" y="23.99"/><g stroke="#000"><path d="m42.72 20.6-5.94-17.93c-.39-1.19-1.67-1.83-2.86-1.44l-31.14 10.33c-1.19.39-1.83 1.67-1.44 2.86l6.41 19.33c.39 1.19 1.67 1.83 2.86 1.44l1.84-.61"/><path d="m20.37 42.09h4.53"/><path d="m28.29 42.09h4.52"/><path d="m36.21 42.09h4.52"/><path d="m44.13 42.09h4.52"/><path d="m48.65 33.04c0 1.87-1.52 3.39-3.39 3.39h-1.13c-1.87 0-3.39-1.52-3.39-3.39 0-1.87 1.52-3.39 3.39-3.39h1.13c1.87 0 3.39 1.52 3.39 3.39z"/></g></g></svg>