<svg viewBox="0 0 51.94 50" xmlns="http://www.w3.org/2000/svg"><g fill="none" stroke-linejoin="round" stroke-width="2"><path d="m23.02 36.61c-5.26-2.1-8.98-7.24-8.98-13.24 0-.42.02-.83.06-1.24l5.32.98-6.54-15.59-11.68 12.22 5.06.94c-.11.88-.18 1.78-.18 2.69 0 8.58 4.89 16.02 12.02 19.73" stroke="#000"/><path d="m42.51 22.24c.03.37.06.75.06 1.13 0 5.96-3.68 11.07-8.88 13.2l-1.84-5.18-10.23 13.46 16.42 4.01-1.7-4.81c8.29-3.23 14.19-11.26 14.19-20.68 0-.04 0-.07 0-.11" stroke="#be0000"/><path d="m19.14 12.45c2.48-2.08 5.67-3.34 9.16-3.34s6.97 1.39 9.5 3.66l-3.83 4.48 16.77 2.13-4.74-16.23-3.04 3.56c-3.91-3.46-9.04-5.57-14.66-5.57-4.56 0-8.8 1.38-12.33 3.75" stroke="#000"/></g></svg>