<svg id="a" xmlns="http://www.w3.org/2000/svg" viewBox="0 0 45.34 50"><defs><style>.b{stroke-miterlimit:10}.b,.c{stroke:#000}.b,.c,.d{fill:none;stroke-width:2px}.c,.d{stroke-linecap:round;stroke-linejoin:round}.d{stroke:#be0000}</style></defs><rect class="d" x="4.71" y="1.19" width="39.47" height="47.63" rx="2.24" ry="2.24"/><line class="c" x1="1.16" y1="10.92" x2="8.26" y2="10.92"/><line class="c" x1="1.16" y1="18.16" x2="8.26" y2="18.16"/><line class="c" x1="1.16" y1="25.4" x2="8.26" y2="25.4"/><line class="c" x1="1.16" y1="32.63" x2="8.26" y2="32.63"/><line class="c" x1="1.16" y1="39.87" x2="8.26" y2="39.87"/><path class="b" d="M32.51,36.26v-3.11c0-1.77-4.27-4.65-7.77-4.65s-7.77,2.88-7.77,4.65v3.11"/><path class="b" d="M24.74,26.2c-2.8,0-4.66-2.37-4.66-5.3v-1.46c0-2.93,1.86-5.3,4.66-5.3s4.66,2.37,4.66,5.3v1.46c0,2.93-1.86,5.3-4.66,5.3Z"/></svg>