<svg viewBox="0 0 50 50" xmlns="http://www.w3.org/2000/svg"><g fill="none" stroke-miterlimit="10" stroke-width="2"><circle cx="18.89" cy="18.89" r="17.77" stroke="#000"/><path d="m32.22 36.66 11.3 11.3c1.23 1.23 3.22 1.23 4.44 0 1.23-1.23 1.23-3.22 0-4.44l-11.3-11.3" stroke="#000"/><g stroke="#be0000"><path d="m23.34 20.6c-1.12-.91-2.89-1.71-4.44-1.71-1.56 0-3.33.8-4.44 1.71"/><path d="m18.89 16.46c2 0 3.33-1.7 3.33-3.81v-1.27c0-2.1-1.33-3.81-3.33-3.81s-3.33 1.7-3.33 3.81v1.27c0 2.1 1.33 3.81 3.33 3.81z"/><path d="m4.45 23.33c1.12-.91 2.89-1.11 4.44-1.11 2.5 0 5.55 2.07 5.55 3.33v3.33"/><path d="m8.9 19.79c2 0 3.33-1.7 3.33-3.81v-1.27c0-2.1-1.33-3.81-3.33-3.81s-3.33 1.7-3.33 3.81v1.27c0 2.1 1.33 3.81 3.33 3.81z"/><path d="m33.33 23.33c-1.12-.91-2.89-1.11-4.44-1.11-2.5 0-5.55 2.07-5.55 3.33v3.33"/><path d="m28.89 19.79c-2 0-3.33-1.7-3.33-3.81v-1.27c0-2.1 1.33-3.81 3.33-3.81s3.33 1.7 3.33 3.81v1.27c0 2.1-1.33 3.81-3.33 3.81z"/></g><path d="m34.44 27.78 3.33 3.33-6.66 6.66-3.33-3.33" stroke="#000"/></g></svg>