<svg viewBox="0 0 50 50" xmlns="http://www.w3.org/2000/svg"><g fill="none" stroke-linejoin="round" stroke-width="2"><g stroke-linecap="round"><path d="m1.4 25.49h2.71" stroke="#000"/><path d="m9.54 25.49h9.94" stroke="#000"/><path d="m4.11 30.13h2.71" stroke="#000"/><path d="m12.25 30.13h9.95" stroke="#000"/><path d="m33.45 16.2h7.74v7.74h7.74v7.74h-7.74v7.74h-7.74v-7.74h-7.74v-7.74h7.74z" stroke="#be0000"/></g><path d="m10.02 21.05v-16.21c0-2.08 1.69-3.77 3.77-3.77h19.31c2.08 0 3.77 1.69 3.77 3.77v7.25" stroke="#000"/><path d="m36.87 43.51v1.65c0 2.08-1.69 3.77-3.77 3.77h-19.31c-2.08 0-3.77-1.69-3.77-3.77v-10.8" stroke="#000"/><path d="m17.7 5.12h11.49" stroke="#000" stroke-linecap="round"/><path d="m21.61 46.2h3.67" stroke="#000" stroke-linecap="round"/></g></svg>