<svg id="a" xmlns="http://www.w3.org/2000/svg" viewBox="0 0 48.32 50"><defs><style>.b,.c{stroke-miterlimit:10}.b,.c,.d,.e{fill:none;stroke-width:2px}.b,.d{stroke:#be0000}.c,.e{stroke:#000}.d,.e{stroke-linejoin:round}</style></defs><path class="b" d="M41.66,24.45c.09-.48.14-.98.14-1.51,0-5.43-3.41-10.35-9.34-14.5"/><path class="b" d="M27.27,8.43c-5.94,4.16-9.34,9.07-9.34,14.5,0,1.66.46,3.04,1.28,4.18"/><path class="e" d="M16.89,41.64c.4-.4.81-1.04,2.08-1.04h14.53c1.15,0,7.5-6.36,8.3-7.26.78-.87,4.23-6.06,5.19-8.3-.6-.81-2.23-1.48-4.15-1.04-1.83.43-2.91,1.74-4.15,4.15l-4.76,2.47"/><path class="e" d="M23.12,34.38h8.3c4.15,0,4.15-5.19,0-5.19h-5.48c-.86,0-2.49-2.08-3.86-2.08h-5.19c-1.4,0-3.14,1.14-4.15,2.08-1.56,1.56-4.15,4.15-4.15,4.15"/><rect class="d" x="6.48" y="31.28" width="7.34" height="17.61" transform="translate(-25.37 18.92) rotate(-45)"/><line class="e" x1="6.51" y1="36.45" x2="8.59" y2="38.53"/><path class="b" d="M32.46,8.43c-.27.41-1.9.63-2.59.63s-2.31-.25-2.59-.63c0,0-3.01-5.58-2.88-5.79,1.09-1.95,3.36-1.58,5.48-1.04,3.02.77,4.23.62,4.81.6.05.8-2.22,6.23-2.22,6.23Z"/><path class="c" d="M26.23,21.92v1.04c0,1.15.93,2.08,2.08,2.08h2.08c1.15,0,2.08-.93,2.08-2.08v-.58c0-.89-.57-1.69-1.42-1.97l-3.39-1.13c-.85-.28-1.42-1.08-1.42-1.97v-.58c0-1.15.93-2.08,2.08-2.08h2.08c1.15,0,2.08.93,2.08,2.08v1.04"/><line class="c" x1="29.35" y1="14.66" x2="29.35" y2="12.58"/><line class="c" x1="29.35" y1="25.04" x2="29.35" y2="27.11"/></svg>