<svg id="a" xmlns="http://www.w3.org/2000/svg" viewBox="0 0 52.33 50"><defs><style>.b{stroke:#be0000}.b,.c{stroke-miterlimit:10}.b,.c,.d{fill:none;stroke-width:2px}.b,.d{stroke-linecap:round}.c,.d{stroke:#000}.d{stroke-linejoin:round}</style></defs><polyline class="d" points="30.5 35.87 18.58 43.42 1.25 31.5"/><line class="c" x1="33.75" y1="10.92" x2="33.75" y2="13.08"/><line class="c" x1="18.58" y1="20.67" x2="18.58" y2="22.83"/><path class="c" d="M35.59,17.39l6.2-3.92c-.94-.6-1.14-1.44,0-2.16l-6.82-4.31c-1.14.72-2.47.6-3.41,0l-6.24,3.94"/><path class="c" d="M17.31,16.01l-6.78,4.28c1.14.72.95,1.55.01,2.15l6.82,4.31c.94-.59,2.26-.71,3.4,0l6.43-4.06"/><polyline class="d" points="30.5 25.04 18.58 32.58 1.25 21.75 14.06 13.82"/><polyline class="d" points="21.9 8.78 33.75 1.17 51.08 12 39.11 19.59"/><polyline class="d" points="30.5 30.47 18.58 38 1.25 26.08"/><line class="d" x1="51.08" y1="17.42" x2="39.17" y2="24.96"/><polyline class="d" points="30.5 41.29 18.58 48.83 1.25 36.92"/><line class="d" x1="51.08" y1="28.25" x2="39.17" y2="35.8"/><line class="d" x1="51.08" y1="22.83" x2="39.17" y2="30.38"/><polygon class="b" points="30.5 24.93 12.66 12.88 20.69 8.03 25.41 10.99 39.17 19.63 39.17 36.96 30.5 42.55 30.5 24.93"/></svg>