<svg id="a" xmlns="http://www.w3.org/2000/svg" viewBox="0 0 50.91 50"><defs><style>.b,.c{stroke:#000}.b,.c,.d,.e{fill:none;stroke-linejoin:round;stroke-width:2px}.b,.d{stroke-linecap:square}.c,.e{stroke-linecap:round}.d,.e{stroke:#be0000}</style></defs><line class="c" x1="20.49" y1="17.61" x2="29.02" y2="17.61"/><polyline class="b" points="20.49 21.39 20.49 8.8 36.51 8.8 36.51 26.88"/><polyline class="d" points="42.68 1.51 34.7 2.67 25.59 26.63"/><line class="c" x1="32.45" y1="17.61" x2="36.51" y2="17.61"/><path class="b" d="M15.25,16.18c-2.55,1.94-3.71,2.89-3.58,7.51"/><path class="e" d="M20.17,25.97c-.65-1.06-1.29-1.65-2.35-1.82-1.65-.27-3.34.6-6.17.6s-5.08-1.3-6.81-.52c-2.61,1.18-3.59,4.26-3.5,6.18.72,14.67,5.7,12.83,5.7,12.83"/><path class="c" d="M7.05,26.88c-1.51.43-2.17,1.99-2.12,3.15"/><path class="c" d="M12.14,19.61s-.78-2.57-3.41-3.65-5.57.65-5.57.65c0,0,1.34,3.28,3.67,3.93s5.31-.92,5.31-.92Z"/><path class="b" d="M49.63,40.77h-8.2c-1.3.84-2.2,4.79-3.93,4.79s-4.19-4.75-6.09-4.79-21.58,0-21.58,0"/><polyline class="c" points="42.69 44.25 49.49 44.25 49.49 48.49 9.83 48.49 9.83 44.25 30.42 44.25"/><path class="c" d="M35.86,33.73c0-1.72-1.68-4.27-7.22-4.27-3.74,0-5.17,1.58-5.17,1.58"/><path class="c" d="M24.51,33.73c0-1.72-1.68-4.27-7.22-4.27-4.37,0-6.98,1.89-7.45,3.95-.22.94,0,3.85,0,3.85h39.62v-3.36c0-1.72-1.85-4.44-7.39-4.44s-6.68,2.17-6.68,2.17"/></svg>