<svg viewBox="0 0 55.44 50" xmlns="http://www.w3.org/2000/svg"><g fill="none" stroke-miterlimit="10" stroke-width="2"><circle cx="27.77" cy="25" r="11.63" stroke="#000"/><path d="m47.84 6.18v6.28h-6.27" stroke="#be0000"/><path d="m7.7 12.46c4.2-6.78 11.51-11.29 20.07-11.29s15.87 4.51 20.07 11.29" stroke="#be0000"/><path d="m7.7 43.82v-6.28h6.27" stroke="#be0000"/><path d="m47.84 37.54c-4.2 6.78-11.51 11.29-20.07 11.29s-15.87-4.51-20.07-11.29" stroke="#be0000"/><g stroke="#000"><path d="m24.6 27.11v1.06c0 1.17.95 2.11 2.11 2.11h2.11c1.17 0 2.11-.95 2.11-2.11v-.59c0-.91-.58-1.72-1.45-2.01l-3.45-1.15c-.86-.29-1.45-1.1-1.45-2.01v-.59c0-1.17.95-2.11 2.11-2.11h2.11c1.17 0 2.11.95 2.11 2.11v1.06"/><path d="m27.77 19.72v-3.18"/><path d="m27.77 30.28v3.18"/><path d="m54.4 32.07v-1.62c0-1.92-3.8-2.91-5.83-2.91s-5.83.99-5.83 2.91v1.66"/><path d="m48.58 25.1c1.36 0 2.33-.95 2.33-2.33v-1.17c0-1.38-.97-2.33-2.33-2.33s-2.33.95-2.33 2.33v1.17c0 1.38.97 2.33 2.33 2.33z"/><path d="m12.81 32.07v-1.62c0-1.92-3.8-2.91-5.83-2.91s-5.83.99-5.83 2.91v1.66"/><path d="m6.99 25.1c1.36 0 2.33-.95 2.33-2.33v-1.17c0-1.38-.97-2.33-2.33-2.33s-2.33.95-2.33 2.33v1.17c0 1.38.97 2.33 2.33 2.33z"/></g></g></svg>