<svg viewBox="0 0 40.03 50" xmlns="http://www.w3.org/2000/svg"><g fill="none" stroke-linejoin="round" stroke-width="2"><path d="m8.39 15.61c-4.28 3.42-7.03 8.67-7.03 14.57 0 10.3 8.35 18.65 18.65 18.65s18.65-8.35 18.65-18.65c0-5.9-2.75-11.15-7.03-14.57" stroke="#000"/><path d="m20.01 1.17c-4.86 0-9.33 4.31-9.33 9.33 0 7.16 6.98 8.78 9.33 16.58 2.34-7.8 9.33-9.42 9.33-16.58 0-5.02-4.46-9.33-9.33-9.33z" stroke="#be0000"/><path d="m20 7.38c-1.72 0-3.12 1.39-3.12 3.1s1.4 3.1 3.12 3.1 3.12-1.39 3.12-3.1-1.4-3.1-3.12-3.1z" stroke="#be0000"/><g stroke="#000"><path d="m10.69 31.22h3.11l3.11 3.11v2.07l-2.08 2.07v1.04l-1.03 1.03v2.08l-1.04 1.03-2.07-2.07v-5.18l-2.07-2.07v-1.04z"/><path d="m3.43 21.89 2.08 2.07h1.03l3.11 4.15h1.04l1.03-1.04v-1.03l2.08-2.08h2.07"/><path d="m33.49 43.08v-6.68l-2.08-2.07h-4.14v-3.15l2.07-2.03h5.18l3.93 3.89"/><path d="m38.2 26.04h-4.71l-1.04-1.04h-3.11v-2.07l2.07-2.08h4.75"/></g></g></svg>