<svg id="a" xmlns="http://www.w3.org/2000/svg" viewBox="0 0 50 50"><defs><style>.b,.c{stroke-miterlimit:10}.b,.c,.d{fill:none;stroke-width:2px}.b,.d{stroke:#be0000}.c{stroke:#000}.d{stroke-linecap:round;stroke-linejoin:round}</style></defs><path class="c" d="M17.62,39.79l-2.08-.11-.42-1.76,11.55-7.27c.4-.26.88-.37,1.35-.32l14.15,1.1.42,1.76-12.28,7.53c-.34.22-.75.32-1.16.28l-9.53-1.04"/><path class="b" d="M28.05,34.82l-8.26,5.01s-1.14,9.73-1.14,9.73"/><path class="c" d="M33.78,45.74c-.71.26-1.49.5-2.32.7-3.9.93-7.31.64-7.62-.66l-1.27-5.29"/><path class="c" d="M29.09,46.86c.76-.09,1.56-.23,2.38-.43,3.9-.93,6.8-2.75,6.49-4.04l-1.27-5.29"/><polyline class="b" points="39.23 19.47 39.27 22.06 45.68 26.36"/><path class="c" d="M48.52,2.52l-4.24,12.97c-.14.46-.43.85-.82,1.11l-11.59,8.19-1.45-1.08,2.25-6.61.27.2c.85.63,2.79-.45,4.74-2.52.53-.55,1.05-1.17,1.56-1.85.5-.67.95-1.35,1.33-2,1.43-2.46,1.93-4.63,1.08-5.26l-.39-.28,5.81-3.95,1.45,1.08Z"/><path class="c" d="M29.18,8.43c.38-.66.83-1.34,1.34-2.02,2.4-3.21,5.21-5.16,6.28-4.36l4.36,3.26"/><path class="c" d="M32.06,4.57c-.52.55-1.05,1.18-1.56,1.85-2.4,3.21-3.48,6.46-2.41,7.26l4.36,3.26"/><path class="c" d="M28.59,14.05l4.08,3.05.27.2c.85.63,2.79-.45,4.74-2.52.53-.55,1.05-1.17,1.56-1.85.5-.67.95-1.35,1.33-2"/><path class="c" d="M37.29,2.41l3.96,2.98.39.28c.85.63.36,2.8-1.08,5.26-.39.65-.83,1.33-1.33,2-.51.68-1.03,1.3-1.56,1.85"/><path class="c" d="M27.98,13.56c.93.33,2.7-.74,4.5-2.64.52-.55,1.05-1.18,1.56-1.86.51-.67.95-1.35,1.33-2"/><path class="c" d="M36.58,1.94c.65.76.13,2.82-1.21,5.12-.39.65-.82,1.33-1.33,2-.51.68-1.04,1.31-1.56,1.86"/><path class="c" d="M8.08,22.78c-.65-.4-1.32-.86-1.99-1.38-3.16-2.47-5.05-5.32-4.22-6.38l3.35-4.28"/><path class="c" d="M4.28,19.81c.54.54,1.15,1.08,1.82,1.6,3.16,2.47,6.38,3.62,7.2,2.57l3.35-4.28"/><path class="c" d="M13.68,23.5l3.14-4.01.21-.27c.65-.84-.39-2.79-2.42-4.79-.54-.54-1.15-1.07-1.82-1.6-.66-.51-1.33-.97-1.97-1.38"/><path class="c" d="M2.24,14.54l3.06-3.9.29-.38c.65-.84,2.8-.29,5.23,1.19.64.4,1.31.86,1.97,1.38.67.52,1.28,1.06,1.82,1.6"/><path class="c" d="M13.18,24.09c.35-.92-.68-2.72-2.54-4.56-.54-.53-1.16-1.07-1.83-1.6-.66-.52-1.33-.97-1.97-1.38"/><path class="c" d="M1.74,15.24c.78-.63,2.82-.07,5.1,1.32.64.4,1.31.85,1.97,1.38.67.52,1.29,1.07,1.83,1.6"/><line class="b" x1="21.11" y1="15.13" x2="19.18" y2="28.29"/><path class="c" d="M16.82,19.49l.21-.27c.65-.84-.39-2.79-2.42-4.79-.54-.54-1.15-1.07-1.82-1.6-.66-.51-1.33-.97-1.97-1.38-2.43-1.49-4.58-2.03-5.23-1.19l-.29.38L1.48,4.74l1.11-1.43,12.87,4.52c.45.15.84.45,1.09.85l7.94,11.77-1.11,1.43-1.4-.51"/><line class="d" x1="4.39" y1="26.18" x2="4.83" y2="26.75"/><line class="d" x1="22.3" y1="9.65" x2="22.74" y2="10.22"/><line class="d" x1="47.69" y1="32.16" x2="48.13" y2="32.73"/><line class="d" x1="10.35" y1="47.39" x2="10.79" y2="47.97"/><line class="d" x1="17.83" y1="1.22" x2="17.45" y2="1.84"/><line class="d" x1="3.68" y1="42.19" x2="3.31" y2="42.8"/><line class="d" x1="45.71" y1="47.15" x2="45.33" y2="47.76"/><line class="d" x1="46.73" y1="19.7" x2="46.35" y2="20.32"/><line class="d" x1="26.6" y1="4.12" x2="26.8" y2="4.81"/><line class="d" x1="25.97" y1="26.1" x2="26.17" y2="26.79"/><line class="d" x1="6.85" y1="33.2" x2="7.05" y2="33.89"/><line class="d" x1="42.02" y1="40.42" x2="42.22" y2="41.11"/><line class="d" x1="16.16" y1="32.08" x2="15.79" y2="32.7"/></svg>