<svg viewBox="0 0 81.14 50" xmlns="http://www.w3.org/2000/svg"><g fill="none" stroke-miterlimit="10" stroke-width="2"><path d="m6.79 20.71-5.68-1.68v-5.15l36.67-12.41c1.28-.45 2.67-.45 3.93 0l38.32 12.41v5.15l-38.88 12.64c-1.09.39-2.29.39-3.37 0l-25.61-9.19" stroke="#000"/><path d="m38.86 13.88-26.11 8.35c-1.73.49-3.06 1.88-3.06 5.38v20.59" stroke="#be0000"/><g stroke="#000"><path d="m47.44 47.81c-2.15.25-4.46.39-6.87.39-11.37 0-20.59-3.07-20.59-6.86v-15.45"/><path d="m33.76 47.81c2.15.25 4.46.39 6.87.39 11.37 0 20.59-3.07 20.59-6.86v-15.45"/></g></g></svg>