<svg id="a" xmlns="http://www.w3.org/2000/svg" viewBox="0 0 41.32 50"><defs><style>.b,.c{stroke-miterlimit:10}.b,.c,.d{stroke:#000}.b,.c,.d,.e{fill:none;stroke-width:2px}.b,.d,.e{stroke-linecap:round}.d,.e{stroke-linejoin:round}.e{stroke:#be0000}</style></defs><path class="b" d="M7.73,22.31v-12.96c0-1.79,1.58-3.24,3.37-3.24h3.11"/><path class="b" d="M20.69,22.31V4.49c0-1.79-1.38-3.24-3.17-3.24h-.03c-1.79,0-3.27,1.45-3.27,3.24v17.82"/><path class="d" d="M20.69,6.11h3.37c1.79,0,3.11,1.45,3.11,3.24v19.44s-4.24,0-7.2,2.46"/><path class="b" d="M22.31,44.99s2.83-.47,4.86-1.62"/><path class="c" d="M27.17,49.79v-6.41c1.7-1.03,4.51-3.07,6.04-6.47l6.78-15.83c.4-1.61-1.98-1.58-3.63-1.48-4.54.28-7.93,8.15-9.19,9.19"/><path class="c" d="M4.51,49.79l-.03-1.55c0-2.85-3.24-5.24-3.24-8.91V15.83c0-1.79,1.58-3.24,3.37-3.24h3.11"/><path class="e" d="M5.13,33.04l10.88-.58s-6.99,3.56-4.4,10.17"/></svg>