<svg viewBox="0 0 50 50" xmlns="http://www.w3.org/2000/svg"><g fill="none" stroke-width="2"><path d="m32.22 36.66 11.3 11.3c1.23 1.23 3.22 1.23 4.44 0 1.23-1.23 1.23-3.22 0-4.44l-11.3-11.3" stroke="#000" stroke-miterlimit="10"/><path d="m34.44 27.78 3.33 3.33-6.66 6.66-3.33-3.33" stroke="#000" stroke-miterlimit="10"/><g stroke="#be0000" stroke-linejoin="round"><path d="m25.09 4.62c-.83.59-1.53 1.3-2.1 2.11l-2.13-.71-1.45 3.5 2.01 1c-.16.97-.17 1.98 0 2.98l-2.01 1 1.45 3.5 2.13-.71c.59.83 1.3 1.53 2.11 2.1l-.71 2.13 3.5 1.45 1-2.01c.97.16 1.98.17 2.98 0l1 2.01"/><path d="m33.05 14.15c-.58 1-1.66 1.67-2.89 1.67-1.84 0-3.34-1.49-3.34-3.34 0-1.55 1.06-2.86 2.5-3.23"/><path d="m16.45 34.03c.83-.59 1.53-1.3 2.1-2.11l2.13.71 1.45-3.5-2.01-1c.16-.97.17-1.98 0-2.98l2.01-1-1.45-3.5-2.13.71c-.59-.83-1.3-1.53-2.11-2.1l.71-2.13-3.5-1.45-1 2.01c-.97-.16-1.98-.17-2.98 0l-1-2.01-3.5 1.45.71 2.13c-.83.59-1.53 1.3-2.1 2.11"/><path d="m7.62 26.79c0-2.02 1.64-3.66 3.66-3.66s3.66 1.64 3.66 3.66-1.64 3.66-3.66 3.66"/></g><circle cx="18.89" cy="18.89" r="17.77" stroke="#000" stroke-miterlimit="10"/></g></svg>