<svg viewBox="0 0 50 50" xmlns="http://www.w3.org/2000/svg"><g fill="none" stroke-miterlimit="10" stroke-width="2"><path d="m30.83 27.69 4.1 4.1" stroke="#be0000"/><path d="m40.68 17.84 4.92 4.92c.89.89 1.88 3.05.82 4.1l-6.57 6.57" stroke="#be0000" stroke-linecap="round"/><g stroke="#000"><path d="m15.12 22.1v1.16c0 1.28 1.04 2.32 2.32 2.32h2.32c1.28 0 2.32-1.04 2.32-2.32v-.65c0-1-.64-1.89-1.59-2.2l-3.79-1.26c-.95-.32-1.59-1.2-1.59-2.2v-.65c0-1.28 1.04-2.32 2.32-2.32h2.32c1.28 0 2.32 1.04 2.32 2.32v1.16"/><path d="m18.61 13.97v-3.48"/><path d="m18.61 25.58v3.48"/><path d="m21.61 41.05c1.15-3.86 3.18-7.33 6.13-10.28l16.21-16.21c1.06-1.06 2.37-.92 3.28 0l.82.82c.92.92 1.06 2.23 0 3.28l-16.21 16.21c-2.95 2.95-6.38 5.03-10.24 6.17z"/></g><path d="m7.47 41.57c1.16-1.65 3.48-4.95 4.64-1.65s4.64 1.65 5.8 0" stroke="#be0000"/><path d="m36.01 16.77v-15.56h-30.17l-4.64 4.64v42.94h34.81v-12.38" stroke="#000"/><path d="m8.16 4.69v3.48h-3.48" stroke="#000"/></g></svg>