<svg viewBox="0 0 66.49 50" xmlns="http://www.w3.org/2000/svg"><g fill="none" stroke-width="2"><path d="m61.21 48.77h-55.93c-2.32 0-4.19-1.88-4.19-4.19v-2.8h25.17l1.4 1.4h11.19l1.4-1.4h25.17v2.8c0 2.32-1.88 4.19-4.19 4.19z" stroke="#000" stroke-linejoin="round"/><path d="m5.28 41.78v-37.75c0-1.54 1.25-2.8 2.8-2.8h50.34c1.54 0 2.8 1.25 2.8 2.8v37.75" stroke="#000" stroke-linejoin="round"/><path d="m52.47 26.7-13.8-10.03v17.03c0 .51.44.69.85.29l3.86-3.74 3.73 6.58c.31.51 1.05.62 1.65.25l1.56-.98c.58-.37.81-1.08.52-1.59l-3.58-6.22h4.69c.59 0 .97-1.28.52-1.58z" stroke="#be0000" stroke-miterlimit="10"/></g></svg>