<svg viewBox="0 0 31.35 50" xmlns="http://www.w3.org/2000/svg"><g fill="none" stroke-width="2"><path d="m30.1 15.55s0 .01 0 .02v-.04s0 .02 0 .03zm-14.42-14.41c-7.97 0-14.43 6.44-14.43 14.41 0 11.04 10.8 13.51 14.43 25.55 3.62-12.02 14.41-14.53 14.43-25.54 0-7.96-6.46-14.41-14.43-14.41z" stroke="#be0000" stroke-linejoin="round"/><g stroke="#000"><path d="m8.92 38.41c-4.56.93-7.67 2.78-7.67 4.9 0 3.06 6.46 5.55 14.43 5.55s14.43-2.48 14.43-5.55c0-2.13-3.11-3.97-7.67-4.9" stroke-linejoin="round"/><path d="m21.23 23.54v-2.22c0-1.26-3.05-3.32-5.55-3.32s-5.55 2.06-5.55 3.32v2.22" stroke-linecap="round" stroke-miterlimit="10"/><path d="m15.68 15.39c-2 0-3.33-1.7-3.33-3.81v-1.27c0-2.1 1.33-3.81 3.33-3.81s3.33 1.7 3.33 3.81v1.27c0 2.1-1.33 3.81-3.33 3.81z" stroke-miterlimit="10"/></g></g></svg>