<svg viewBox="0 0 55.01 50" xmlns="http://www.w3.org/2000/svg"><g fill="none" stroke-linejoin="round" stroke-width="2"><path d="m20.43 14.02 2.2-5.32 3.24 1.08c.9-1.26 1.98-2.33 3.2-3.2l-1.08-3.24 5.32-2.2 1.53 3.05c1.48-.25 3.01-.26 4.53 0l1.53-3.05 5.32 2.2-1.08 3.24c1.26.9 2.33 1.98 3.2 3.2l3.24-1.08 2.2 5.32-3.05 1.53c.25 1.48.26 3.01 0 4.53l3.05 1.53-2.2 5.32-3.24-1.08c-.9 1.26-1.98 2.33-3.2 3.2l1.08 3.24-5.32 2.2-1.53-3.05c-1.48.25-3.01.26-4.53 0l-1.53 3.05-5.32-2.2 1.08-3.24c-1.26-.9-2.33-1.98-3.2-3.2l-3.24 1.08-2.2-5.32 3.05-1.53c-.25-1.48-.26-3.01 0-4.53z" stroke="#be0000"/><path d="m32 19.93c1.17 2.82 4.4 4.15 7.22 2.99 2.82-1.17 4.16-4.4 2.99-7.22s-4.4-4.15-7.22-2.99c-2.82 1.17-4.16 4.4-2.99 7.22z" stroke="#be0000"/><g stroke="#000"><path d="m16.1 16.51c-.8-1.94-3.03-2.86-4.97-2.06s-2.86 3.03-2.06 4.97c.33.8.91 1.43 1.61 1.84"/><path d="m1.89 34.89 1.51-3.64 2.81 1.16c.57-.79 1.25-1.47 2.02-2.02l-1.17-2.81 3.64-1.51 1.17 2.81c.93-.16 1.9-.16 2.86 0l1.16-2.81 3.64 1.51-1.16 2.81c.79.57 1.47 1.25 2.02 2.02l2.81-1.17 1.51 3.64-2.81 1.17c.16.93.16 1.9 0 2.86l2.81 1.16-1.51 3.64-2.81-1.16c-.57.79-1.25 1.47-2.02 2.02l1.17 2.81-3.64 1.51-1.17-2.81c-.93.16-1.9.16-2.86 0l-1.16 2.81-3.64-1.51 1.16-2.81c-.79-.57-1.47-1.25-2.02-2.02l-2.81 1.17-1.51-3.64 2.81-1.17c-.16-.93-.16-1.9 0-2.86z"/><path d="m5.93 23.27-2.69 1.31-1.69-3.48 2.69-1.31c-.21-.91-.27-1.85-.17-2.8l-2.83-.98 1.26-3.66 2.83.98c.51-.81 1.14-1.52 1.87-2.1l-1.31-2.69 3.48-1.69 1.31 2.69c.91-.21 1.85-.27 2.8-.17l.98-2.83 3.66 1.26-.98 2.83"/><path d="m9.76 36.02c-.81 1.95.12 4.19 2.07 5s4.19-.12 5-2.07-.12-4.19-2.07-5-4.19.12-5 2.07z"/></g></g></svg>