<svg viewBox="0 0 50 50" xmlns="http://www.w3.org/2000/svg"><g fill="none" stroke-width="2"><path d="m35.75 15.75s-5.34 3.69-13.1 3.85v12.02c0 4.19 1.89 8.17 5.15 10.81l7.95 6.45 7.95-6.45c3.26-2.64 5.15-6.61 5.15-10.81v-12.02c-7.76-.16-13.1-3.85-13.1-3.85z" stroke="#be0000" stroke-linecap="round" stroke-linejoin="round"/><path d="m38.06 28.08v-4.62h-4.62v4.62h-4.62v4.62h4.62v4.63h4.62v-4.63h4.62v-4.62z" stroke="#be0000" stroke-linecap="round" stroke-linejoin="round"/><g stroke="#000"><path d="m30.52 48.95h-27.29c-1.15 0-2.08-.93-2.08-2.08v-38.53c0-1.15.93-2.08 2.08-2.08h4.17" stroke-miterlimit="10"/><path d="m32.38 6.26h4.17c1.15 0 2.08.93 2.08 2.08v4.45" stroke-miterlimit="10"/><path d="m27.18 5.21h-3.12c0-2.3-1.86-4.17-4.17-4.17s-4.17 1.86-4.17 4.17h-3.12c-1.73 0-3.12 1.4-3.12 3.12v3.12h20.83v-3.12c0-1.73-1.4-3.12-3.12-3.12z" stroke-miterlimit="10"/><path d="m19.89 4.17v2.09" stroke-miterlimit="10"/><path d="m12.26 23.45h6.96" stroke-linejoin="round"/><path d="m12.26 28.87h6.96" stroke-linejoin="round"/><path d="m12.26 34.28h6.96" stroke-linejoin="round"/></g><circle cx="7.85" cy="23.45" r="1.55" stroke="#be0000" stroke-miterlimit="10"/><circle cx="7.85" cy="28.87" r="1.55" stroke="#be0000" stroke-miterlimit="10"/><circle cx="7.85" cy="34.28" r="1.55" stroke="#be0000" stroke-miterlimit="10"/></g></svg>