<svg viewBox="0 0 50 50" xmlns="http://www.w3.org/2000/svg"><g fill="none" stroke-miterlimit="10" stroke-width="2"><g stroke="#000"><path d="m32.26 17.91c5.07.96 9.53 4.46 11.49 9.63 1.93 5.1.97 10.59-2.08 14.65"/><path d="m30.44 23.38c3.5.38 6.67 2.66 8 6.18 1.89 4.99-.62 10.56-5.61 12.45-.17.07-.35.13-.53.18"/><path d="m8.6 38.41v3.78"/><path d="m15.85 38.41v3.78"/><path d="m14.87 27.23-2.58 3.86 3.86 2.58 2.57-3.86"/></g><path d="m33.33 7.96 2.57-3.86-3.85-2.57-2.58 3.85" stroke="#be0000"/><path d="m48.89 47.45v1.32h-47.71v-1.32c0-3.47 2.32-5.26 6.82-5.26h34.07c4.5 0 6.82 1.79 6.82 5.26z" stroke="#be0000"/><path d="m25.31 22.73-2.72 4.08-6.43-4.29 12.02-18 6.43 4.3-4.44 6.64" stroke="#000"/><path d="m32.26 17.93c.89 2.35-.29 4.97-2.64 5.86s-4.97-.29-5.86-2.64.29-4.97 2.64-5.86 4.97.29 5.86 2.64z" stroke="#000"/><path d="m6.45 38.25h11.55" stroke="#000"/><path d="m15.76 21.18h4.64v10.82h-4.64z" stroke="#be0000" transform="matrix(.55557023 -.83146961 .83146961 .55557023 -14.07 26.85)"/></g></svg>