<svg viewBox="0 0 40.68 50" xmlns="http://www.w3.org/2000/svg"><g fill="none" stroke-width="2"><path d="m20.34 1.14c-10.81 0-19.12 7.95-19.12 18.06 0 4.37.82 7.54 3.48 11.52 2.66 3.97 15.63 18.21 15.63 18.21s12.98-14.24 15.63-18.21c2.66-3.97 3.49-7.15 3.48-11.52.01-10.11-8.29-18.06-19.1-18.06z" stroke="#be0000" stroke-linejoin="round"/><g stroke="#000" stroke-miterlimit="10"><path d="m20.34 11.76h-5.33c-.77 0-1.61.79-2.14 2.05l-1.02 3.25"/><path d="m20.34 11.76h5.33c.77 0 1.61.79 2.14 2.05l1.02 3.25"/><path d="m20.34 18.13h-7.43l-2.13-1.06"/><path d="m20.34 26.63h-11.68v-6.3c0-.71 2.12-3.26 2.12-3.26"/><path d="m15.03 26.63v2.12c0 .59-.48 1.06-1.06 1.06h-3.19c-.59 0-1.06-.48-1.06-1.06v-2.19"/><path d="m15.03 22.38h-4.25"/><path d="m10.78 17.07-2.12-2.12h-2.13"/><path d="m20.34 18.13h7.43l2.12-1.06"/><path d="m20.34 26.63h11.68v-6.3c0-.71-2.12-3.26-2.12-3.26"/><path d="m25.65 26.63v2.12c0 .59.48 1.06 1.06 1.06h3.19c.59 0 1.06-.48 1.06-1.06v-2.19"/><path d="m25.65 22.38h4.24"/><path d="m29.89 17.07 2.13-2.12h2.12"/></g></g></svg>