<svg viewBox="0 0 64 50" xmlns="http://www.w3.org/2000/svg"><g fill="none" stroke-width="2"><g stroke="#000" stroke-linejoin="round"><path d="m63.02 9.15-46.62 36.86-12.17-28.19z"/><path d="m12.93 43-2.75 1.37-1.87-3.69 2.92-1.24"/><path d="m5.49 25.93-2.88 1.12-1.51-3.85 2.49-1.2"/></g><path d="m11.4 24 7.15-2.89 1.56 3.85-1.92.78 1.3 3.24.5 1.24c.82 2.02 4.07.72 3.25-1.31l-.5-1.24-1.3-3.24-1.87.76-1.56-3.85 7.14-2.89 1.56 3.85-1.36.55 1.2 2.96.5 1.24c3.14 7.74-7.89 12.27-11.01 4.54l-.5-1.24-1.23-3.04-1.34.54-1.56-3.85z" stroke="#be0000" stroke-miterlimit="10"/></g></svg>