<svg viewBox="0 0 50 50" xmlns="http://www.w3.org/2000/svg"><g fill="none" stroke-width="2"><path d="m32.14 29.74h3.57v8.12c0 1.16 1.5 1.63 2.16.68l6.16-8.8h2.38c1.31 0 2.38-1.06 2.38-2.38v-23.79c0-1.31-1.06-2.38-2.38-2.38h-42.82c-1.31 0-2.38 1.06-2.38 2.38v23.79c0 1.31 1.06 2.38 2.38 2.38h2.38" stroke="#be0000" stroke-miterlimit="10"/><g stroke="#000"><path d="m24.41 35.14c2.38 0 4.16-2.05 4.16-4.59v-1.53c0-2.53-1.78-4.59-4.16-4.59s-4.16 2.05-4.16 4.59v1.53c0 2.53 1.78 4.59 4.16 4.59z" stroke-miterlimit="10"/><path d="m17.86 49.92v-5.91l-7.14-7.14-1.19-5.95c0-2.55.97-4.76 3.57-4.76l2.38 7.14 4.76 4.76h5.95c3.28 0 5.95 2.66 5.95 5.95v5.91" stroke-linejoin="round"/><path d="m20.86 9.79v-1.38c0-1.52 1.23-2.77 2.75-2.77h2.77c1.53 0 2.77 1.24 2.77 2.77v.77c0 1.19-.76 2.24-1.88 2.61l-2.27.76v1.15s0 2.95 0 2.95" stroke-miterlimit="10"/><path d="m25 21.4v-2.73" stroke-miterlimit="10"/></g></g></svg>