<svg id="a" xmlns="http://www.w3.org/2000/svg" viewBox="0 0 46.05 50"><defs><style>.b,.c,.d,.e{stroke-miterlimit:10}.b,.c,.d,.e,.f,.g{fill:none;stroke-width:2px}.b,.c,.f,.g{stroke-linecap:round}.b,.d,.g{stroke:#be0000}.c,.e,.f{stroke:#000}.f,.g{stroke-linejoin:round}</style></defs><path class="c" d="M5.45,32.91v-8.47c0-1.17,1.03-2.12,2.2-2.12h2.03"/><path class="c" d="M13.92,32.91v-11.64c0-1.17-.9-2.12-2.07-2.12h-.02c-1.17,0-2.14.95-2.14,2.12v11.64"/><path class="f" d="M13.92,22.32h2.2c1.17,0,2.03.95,2.03,2.12v12.7s-2.77,0-4.71,1.61"/><path class="c" d="M14.97,47.72s1.85-.31,3.18-1.06"/><path class="e" d="M18.15,49.84v-3.18c1.11-.67,2.95-2.01,3.95-4.22l4.66-10.33c.26-1.05-1.52-1.04-2.59-.98-2.96.18-5.18,5.32-6.01,6"/><path class="e" d="M3.33,49.84c0-1.86-2.12-3.43-2.12-5.82v-15.35c0-1.17,1.03-2.12,2.2-2.12h2.03"/><path class="g" d="M23.44,22.32v-8.47c0-1.17,1.03-2.12,2.2-2.12h2.03"/><path class="g" d="M31.91,22.32v-11.64c0-1.17-.9-2.12-2.07-2.12h-.02c-1.17,0-2.14.95-2.14,2.12v11.64"/><path class="g" d="M31.91,11.74h2.2c1.17,0,2.03.95,2.03,2.12v12.7s-2.77,0-4.71,1.61"/><path class="b" d="M32.97,37.14s1.85-.31,3.18-1.06"/><path class="d" d="M36.14,49.84v-13.76c1.11-.67,2.95-2.01,3.95-4.22l4.82-10.43c.26-1.05-1.68-.94-2.76-.88-2.96.18-5.18,5.32-6.01,6"/><path class="d" d="M19.21,18.09c0-1.17,1.03-2.12,2.2-2.12h2.03"/><path class="e" d="M10.74,13.85v-7.41c0-1.17,1.03-2.12,2.2-2.12h2.03"/><path class="e" d="M19.21,11.74V3.27c0-1.17-.9-2.12-2.07-2.12h-.02c-1.17,0-2.14.95-2.14,2.12v11.64"/><path class="e" d="M19.21,4.33h2.2c1.17,0,2.03.95,2.03,2.12v1.06"/><path class="e" d="M6.51,15.97v-5.29c0-1.17,1.03-2.12,2.2-2.12h2.03"/></svg>