<svg viewBox="0 0 59.84 50" xmlns="http://www.w3.org/2000/svg"><g fill="none" stroke-miterlimit="10" stroke-width="2"><path d="m36.31 15.63v-7.55h-6.51v26.04" stroke="#000"/><path d="m24.59 34.12v-18.23h-6.51v18.23" stroke="#be0000"/><path d="m12.88 34.12v-11.72h-6.51v11.72" stroke="#000"/><circle cx="43.8" cy="25.95" r="9.92" stroke="#be0000"/><path d="m38.84 25.95c0-2.74 2.22-4.96 4.96-4.96" stroke="#000" stroke-linecap="round"/><path d="m51.4 33.92 7.27 7.27" stroke="#be0000" stroke-linecap="round"/><g stroke="#000"><path d="m53.59 41.26h-51.44c-.55 0-1-.45-1-1v-38.03c0-.55.45-1 1-1h55.55c.55 0 1 .45 1 1v31.21"/><path d="m22.41 48.77v-5"/><path d="m37.43 43.77v5"/><path d="m43.68 48.77h-27.52"/></g></g></svg>