<svg id="a" xmlns="http://www.w3.org/2000/svg" viewBox="0 0 50 50"><defs><style>.b{fill:#be0000}.c{stroke-miterlimit:10}.c,.d{stroke:#be0000}.c,.d,.e{fill:none;stroke-width:2px}.d,.e{stroke-linejoin:round}.e{stroke:#000}</style></defs><path class="e" d="M10.94,48.52h20.45c.16,0,6.31-.04,6.66-.13,3.01-.68,5.02-2.55,6.05-4.83"/><line class="e" x1="38.33" y1="17.21" x2="25.57" y2="17.22"/><path class="e" d="M17.75,17.22h-1.17c-.17,0-6.89-.01-7.09,0-8.6.34-8.62,13.26-.03,13.64.22.01,6.93.02,7.12.02h14.81c.1,0,6.12.01,6.29.04,3.26.55,5.43,2.52,6.5,4.97"/><path class="d" d="M42.81,1.12c-3.15,0-6.04,2.79-6.04,6.04,0,4.64,4.52,5.68,6.04,10.74,1.52-5.05,6.04-6.1,6.04-10.74,0-3.25-2.89-6.04-6.04-6.04Z"/><path class="c" d="M25.58,17.43c0,2.14-1.75,3.88-3.91,3.88s-3.92-1.74-3.92-3.88c0-.07,0-.14.01-.21.1-2.05,1.81-3.68,3.91-3.68s3.8,1.63,3.9,3.68c.01.07.01.14.01.21Z"/><path class="b" d="M42.81,5.7c-.94,0-1.7.76-1.7,1.69s.76,1.69,1.7,1.69,1.7-.76,1.7-1.69-.76-1.69-1.7-1.69h0Z"/><path class="d" d="M6.25,34.82c-2.65,0-5.08,2.35-5.08,5.08,0,3.9,3.8,4.78,5.08,9.03,1.28-4.25,5.08-5.13,5.08-9.03,0-2.73-2.43-5.08-5.08-5.08Z"/><path class="b" d="M6.25,38.06c-.94,0-1.7.76-1.7,1.69s.76,1.69,1.7,1.69,1.7-.76,1.7-1.69-.76-1.69-1.7-1.69h0Z"/><path class="c" d="M47.67,39.74c0,2.14-1.76,3.88-3.92,3.88-.21,0-.41-.01-.61-.05-1.88-.28-3.3-1.89-3.3-3.83s1.47-3.6,3.38-3.85c.17-.03.35-.04.53-.04,2.16,0,3.92,1.74,3.92,3.89Z"/></svg>