<svg viewBox="0 0 50 50" xmlns="http://www.w3.org/2000/svg"><g fill="none" stroke-width="2"><g stroke="#be0000"><path d="m21.26 19-13.35.35-2.85 7.61 5.11-1.38 6.28 3.05" stroke-miterlimit="10"/><path d="m30.95 28.68-.35 13.35-7.61 2.85 1.37-5.11-3.04-6.28" stroke-miterlimit="10"/><path d="m12.8 31.46c-10.79.93-8.72 10.83-11.68 17.48 6.66-2.96 16.55-.89 17.48-11.68" stroke-linecap="round" stroke-linejoin="round"/></g><path d="m34.28 20.53c-1.34 1.34-3.52 1.34-4.86 0s-1.34-3.52 0-4.86 3.52-1.34 4.86 0 1.34 3.52 0 4.86z" stroke="#000" stroke-linecap="round" stroke-linejoin="round"/><path d="m21.32 33.49c4.9-1.32 12.89-6.41 18.14-11.66 9.35-9.36 9.4-20.75 9.4-20.75s-11.39.05-20.75 9.41c-5.25 5.25-10.34 13.24-11.66 18.14l4.86 4.86z" stroke="#000" stroke-linecap="round" stroke-miterlimit="10"/><path d="m24.56 25.39-9.73 9.72" stroke="#be0000" stroke-miterlimit="10"/></g></svg>