<svg viewBox="0 0 62.78 50" xmlns="http://www.w3.org/2000/svg"><g fill="none" stroke-linecap="round" stroke-width="2"><g stroke="#000"><circle cx="16.08" cy="42.61" r="6.25" stroke-linejoin="round"/><circle cx="46.19" cy="42.61" r="6.25" stroke-linejoin="round"/><path d="m4.84 5.32v8.52c0 1.97 1.75 3.57 3.9 3.57h41.83" stroke-linejoin="round"/><path d="m52.78 42.67h4.95c2.16 0 3.9-1.75 3.9-3.9v-7.2c0-2.3-.74-4.53-2.1-6.38l-11.56-20.09c-1.84-2.49-4.75-3.96-7.85-3.96h-35.08c-2.16 0-3.9 1.75-3.9 3.9v33.73c0 2.16 1.75 3.9 3.9 3.9h3.9" stroke-linejoin="round"/><path d="m22.87 42.67h16.18" stroke-linejoin="round"/></g><path d="m20.62 22.62h8.05s0 4.32 0 4.32h-2.16s-.01 3.65-.01 3.65v1.4c0 2.28 3.66 2.29 3.66 0v-1.4s0-3.64 0-3.64h-2.11s0-4.33 0-4.33h8.04s0 4.33 0 4.33h-1.54s0 3.34 0 3.34v1.4c.01 8.72-12.42 8.79-12.43.1v-1.4s0-3.42 0-3.42h-1.5s0-4.33 0-4.33z" stroke="#be0000" stroke-miterlimit="10"/><path d="m7.76 20.35 9.41 13.12" stroke="#be0000" stroke-linejoin="round"/><path d="m38.84 20.35 9.41 13.12" stroke="#be0000" stroke-linejoin="round"/></g></svg>