<svg viewBox="0 0 62.04 50" xmlns="http://www.w3.org/2000/svg"><g fill="none" stroke-width="2"><path d="m26.73 25.68h2.73" stroke="#000" stroke-linejoin="round"/><path d="m33.53 25.69c0 3.01 2.45 5.45 5.47 5.45s5.46-2.44 5.46-5.46c0-3.01-2.44-5.45-5.46-5.45s-5.47 2.44-5.47 5.46z" stroke="#000" stroke-linejoin="round"/><path d="m10.37 20.23v-9.55h38.18" stroke="#000" stroke-linejoin="round"/><g stroke-miterlimit="10"><path d="m52.64 35.23h-31.36c0-2.26-1.83-4.09-4.09-4.09v-10.91c2.73 0 4.09-1.83 4.09-4.09h27.27" stroke="#000"/><path d="m41.73 3.86h-16.36" stroke="#be0000"/><path d="m22.64 3.86h-2.73" stroke="#be0000"/><path d="m56.73 48.86h-16.36" stroke="#be0000"/><path d="m37.64 48.86h-2.73" stroke="#be0000"/><path d="m32.19 48.86h-2.73" stroke="#be0000"/><path d="m26.73 48.86h-2.73" stroke="#be0000"/><path d="m14.46 20.23h-9.7" stroke="#be0000"/></g><path d="m60.82 35.23v-28.64c0-3.01-2.44-5.45-5.45-5.45h-4.09v28.64h4.09c3.01 0 5.45 2.44 5.45 5.45s-2.44 5.45-5.45 5.45h-45v-17.73" stroke="#000" stroke-linejoin="round"/><path d="m6.28 27.05h-6.09" stroke="#be0000" stroke-miterlimit="10"/></g></svg>