<svg viewBox="0 0 41.58 50" xmlns="http://www.w3.org/2000/svg"><g fill="none" stroke-width="2"><g stroke="#000" stroke-linejoin="round"><path d="m34.27 30.16h-26.96"/><path d="m20.79 23.93v24.9"/><path d="m34.27 38.45h-26.96"/><path d="m15.91 23.59c-1.45 2.65-2.36 6.47-2.36 10.72 0 8.02 3.23 14.52 7.23 14.52s7.26-6.5 7.26-14.52c0-4.24-.91-8.06-2.36-10.72"/><path d="m12.2 22.61c-3.58 2.65-5.9 6.92-5.89 11.71.02 8.01 6.47 14.5 14.48 14.5s14.54-6.49 14.52-14.5c-.01-4.79-2.34-9.06-5.92-11.71"/></g><path d="m4.02 10.87-1.69-.47c-.74-.21-1.25-.88-1.25-1.65 0-.74.47-1.39 1.17-1.63l17.03-5.72c.63-.22 1.52-.22 2.15 0l17.86 5.72c.72.23 1.21.9 1.21 1.66 0 .75-.49 1.42-1.2 1.65l-18.07 5.83c-.54.19-1.19.19-1.73 0l-12.71-4.52" stroke="#be0000" stroke-miterlimit="10"/><path d="m19.77 7.28-12.94 4.23c-.85.24-1.59.83-1.59 2.06v10.37" stroke="#be0000" stroke-miterlimit="10"/><path d="m31.16 13.56v7.26c0 1.87-4.77 3.11-10.37 3.11s-10.37-1.25-10.37-3.11v-7.26" stroke="#be0000" stroke-miterlimit="10"/></g></svg>