<svg viewBox="0 0 48.12 50" xmlns="http://www.w3.org/2000/svg"><g fill="none" stroke-linejoin="round" stroke-width="2"><path d="m15.48 25.84h32.25" stroke="#000"/><path d="m10.54 41.59v5.25" stroke="#be0000"/><path d="m25.24 48.94-6.3-11.55h-7.35c-3.48 0-6.3-2.82-6.3-6.3v-11.55c0-2.32 1.88-4.2 4.2-4.2h4.2l5.25 6.3h7.35s.6 4.2-4.2 4.2h-6.3l-4.2-4.2" stroke="#000"/><path d="m14.74 25.15v4.89h5.25c2.23 0 4.22 1.41 4.95 3.51l5.07 15.38" stroke="#000"/><path d="m1.09 17.44v15.75c0 4.64 3.76 8.4 8.4 8.4h7.35" stroke="#be0000"/><path d="m16.84 48.94h-2.1-2.1l-2.1-2.1-2.1 2.1h-2.1-2.1" stroke="#be0000"/><path d="m11.81 12.19c2.64 0 4.72-2.01 4.72-4.5v-2.07c0-2.48-2.09-4.5-4.72-4.5s-4.72 2.01-4.72 4.5v2.07c0 2.48 2.09 4.5 4.72 4.5z" stroke="#000"/><path d="m24.72 18.49 3.36-8.4h18.9l-5.04 12.6h-11.76" stroke="#be0000"/></g></svg>