<svg viewBox="0 0 50 50" xmlns="http://www.w3.org/2000/svg"><g fill="none" stroke-width="2"><path d="m30.59 17.35v4.88c2.52 1.42 10.93.58 14.58-1.56-2.86-2.08-5.81-4.02-5.81-4.02s3.49-4.22 4.5-7.13c-2.75.78-6.24 1.2-9.37 1" stroke="#be0000" stroke-linejoin="round"/><path d="m34.5 5.49c-2.93-2.58-13.95-2.77-16.59-.13v12.93c3.72-1.62 11-1.91 16.11.05h.48z" stroke="#be0000" stroke-linejoin="round"/><g stroke="#000"><path d="m17.91 1.19v27.39" stroke-linecap="round" stroke-linejoin="round"/><path d="m20.65 26.3c1.67.13 3.52.7 5.29 2.28 5.38 4.8 4.83 5.74 5.35 5.93.72.26 2.99 1.83 2.99 1.83" stroke-miterlimit="10"/><path d="m27.4 31.32c.76-.81 3.47-3.4 3.87-3.55.4-.14 3.34.76 3.87 1.45.54.69 2.96 6.07 3.74 7.32s3.61 5.72 4.7 6.88" stroke-miterlimit="10"/><path d="m39.55 37.58c.75-.84 3.49-3.28 3.86-3.33s3.08 1.94 3.18 2.34 1.91 3.22 2.45 3.82" stroke-miterlimit="10"/><path d="m14.25 28.09c-2.62 3.19-5.99 6.94-5.99 8.29 0 1.82 2.03 5.96-7.61 12.77" stroke-miterlimit="10"/></g></g></svg>