<svg viewBox="0 0 50 50" xmlns="http://www.w3.org/2000/svg"><g fill="none" stroke-width="2"><g stroke-miterlimit="10"><path d="m48.9 24.44v-18.87c0-2.45-1.99-4.44-4.44-4.44h-38.88c-2.45 0-4.44 1.99-4.44 4.44v29.37c0 2.45 1.99 4.44 4.44 4.44h22.45" stroke="#000"/><path d="m43.35 23.33v-17.77h-23.33l-1.11-1.11h-4.44l-1.11 1.11h-5.56v29.38h18.08" stroke="#000"/><path d="m20.02 5.56v12.22l-3.33-2.22-3.33 2.22v-12.22l1.11-1.11h4.44z" stroke="#be0000"/><path d="m4.47 20v4.44" stroke="#000" stroke-linecap="round"/></g><path d="m33.36 43.32v-3.33c-2.73-2.13-3.56-4.91-4.44-6.66-.88-1.76-2.22-4.44-2.22-4.44 0-1.07 2.28-2.24 3.43-1.11s2.17 2.22 2.17 2.22h1.06v-13.33c0-1.23 1.05-2.22 2.28-2.22h-.03c1.23 0 2.19.99 2.19 2.22v8.88l7.72 1.6c1.87.37 3.39 1.73 3.39 3.95v5.55c0 1.25-1.11 2.18-1.11 3.33v3.33h-14.44z" stroke="#000" stroke-linejoin="round"/><path d="m31.13 43.32h17.77v5.55h-17.77z" stroke="#be0000" stroke-miterlimit="10"/></g></svg>