<svg viewBox="0 0 50 50" xmlns="http://www.w3.org/2000/svg"><g fill="none" stroke-width="2"><path d="m8.27 49.58 2.54-11.86c.42-1.96 1.81-2.96 3.98-3.37l6.53-1.09 6.47-5.84s2.15 3.66-.23 5.91l-4.67 4.62-7.13 2.18" stroke="#000" stroke-miterlimit="10"/><path d="m18.05 49.58 2.17-10.82" stroke="#000" stroke-miterlimit="10"/><path d="m49 49.58-2.44-8.48c-.42-1.96-1.64-3.49-5.09-3.49h-13.05s.73 4.35 4.35 4.35h8.7" stroke="#000" stroke-miterlimit="10"/><path d="m40.98 49.58-2.76-7.62" stroke="#000" stroke-miterlimit="10"/><path d="m16.04 4.69-15.04 6.43 4.95 3.83-.67 6.17 15.04-6.44" stroke="#be0000" stroke-linejoin="round"/><g stroke="#000" stroke-miterlimit="10"><path d="m26.34 28.73-12.05-28.1"/><path d="m30.01 37.6-1.99-4.8"/><path d="m34.95 49.58-3.19-7.74"/><path d="m15.53 31.34c2.1 0 3.61-1.47 3.61-3.61v-1.8c0-2.13-1.51-3.61-3.61-3.61s-3.61 1.47-3.61 3.61v1.8c0 2.13 1.51 3.61 3.61 3.61z"/><path d="m39.71 34.87c2.1 0 3.61-1.47 3.61-3.61v-1.8c0-2.13-1.51-3.61-3.61-3.61s-3.61 1.47-3.61 3.61v1.8c0 2.13 1.51 3.61 3.61 3.61z"/></g></g></svg>