<svg viewBox="0 0 50 50" xmlns="http://www.w3.org/2000/svg"><g fill="none" stroke-linejoin="round" stroke-width="2"><g stroke="#000"><path d="m23.11 30.26-16.36 16.36c-1.29 1.29-3.39 1.29-4.68 0"/><path d="m25.32 18.69 3.28-3.28c-1.76-3.69-1.9-7.46 1.15-10.51l1.56-1.56c2.73-2.73 7.14-2.76 10.51-1.15l-5.83 5.83 4.68 4.68 5.83-5.83c1.61 3.37 1.58 7.78-1.15 10.51-.31.31-1.3 1.3-1.56 1.56-3.05 3.05-6.82 2.91-10.51 1.15l-2.99 2.99"/><path d="m2.07 46.62c-1.29-1.29-1.29-3.39 0-4.68l16.63-16.63"/><path d="m4.41 44.28 2.34-2.34"/><path d="m29.99 33.09-17.93-17.94-3.9-.78-6.25-9.35 3.13-3.13 9.36 6.24.78 3.9 17.93 17.94"/></g><path d="m27.67 35.44 7.8-7.8s2.34.78 2.34.78.77 3.9.78 3.9l9.35 9.35c1.29 1.29 1.29 3.39 0 4.68l-1.56 1.56c-1.29 1.29-3.39 1.29-4.68 0l-9.35-9.35s-3.9-.78-3.9-.78-.79-2.32-.78-2.34z" stroke="#be0000"/><path d="m34.67 34.65 9.36 9.36" stroke="#be0000"/></g></svg>