<?xml version="1.0" standalone="no"?>
<!DOCTYPE svg PUBLIC "-//W3C//DTD SVG 20010904//EN"
 "http://www.w3.org/TR/2001/REC-SVG-20010904/DTD/svg10.dtd">
<svg version="1.0" xmlns="http://www.w3.org/2000/svg"
 width="768.000000pt" height="768.000000pt" viewBox="0 0 768.000000 768.000000"
 preserveAspectRatio="xMidYMid meet">
<metadata>
Created by potrace 1.14, written by Peter Selinger 2001-2017
</metadata>
<g transform="translate(0.000000,768.000000) scale(0.100000,-0.100000)"
fill="#000000" stroke="none">
<path d="M117 7323 c-4 -3 -24 -6 -44 -7 l-38 -1 -2 -1046 -2 -1046 347 0 347
0 3 -1740 2 -1739 651 -645 c358 -354 672 -665 699 -691 l48 -47 101 2 c56 1
101 -1 101 -5 0 -4 12 -3 27 1 25 6 89 7 103 1 3 -1 10 -1 15 0 32 6 97 5 101
-2 3 -5 10 -6 15 -2 16 9 110 11 115 2 3 -5 10 -5 16 -2 15 10 529 11 535 1 2
-4 9 -5 14 -1 16 9 110 11 115 2 3 -5 10 -5 16 -2 15 9 169 10 175 1 2 -4 9
-5 14 -1 15 9 110 11 115 2 3 -4 12 -4 20 -1 22 8 524 10 524 1 0 -4 12 -3 28
1 24 6 88 7 102 1 3 -1 10 -1 15 0 32 6 97 5 101 -2 3 -5 10 -6 15 -2 16 9
110 11 115 2 3 -5 10 -5 16 -2 6 4 222 8 479 8 l468 1 658 651 c362 358 675
668 696 688 24 24 37 45 38 63 0 16 1 796 1 1736 0 1095 4 1710 10 1713 6 4
163 6 349 6 l339 0 0 1047 0 1048 -205 -1 c-113 -1 -205 2 -205 6 0 4 -12 3
-27 -1 -25 -6 -89 -7 -103 -1 -3 1 -9 1 -15 0 -32 -6 -97 -5 -101 2 -3 5 -10
6 -15 2 -16 -9 -110 -11 -115 -2 -3 5 -10 5 -16 2 -15 -10 -529 -11 -535 -1
-2 4 -9 5 -14 1 -16 -9 -110 -11 -115 -2 -3 5 -10 5 -16 2 -15 -9 -169 -10
-175 -1 -2 4 -9 5 -14 1 -15 -9 -110 -11 -115 -2 -3 4 -12 4 -20 1 -22 -8
-524 -10 -524 -1 0 4 -12 3 -27 -1 -25 -6 -89 -7 -103 -1 -3 1 -9 1 -15 0 -32
-6 -97 -5 -101 2 -3 5 -10 6 -15 2 -16 -9 -110 -11 -115 -2 -3 5 -10 5 -16 2
-15 -10 -529 -11 -535 -1 -2 4 -9 5 -14 1 -15 -9 -99 -11 -99 -2 0 4 -7 5 -15
1 -9 -3 -32 -6 -53 -7 l-37 -1 0 -1030 c-1 -567 1 -1037 3 -1047 4 -15 34 -16
348 -15 189 1 344 0 345 -3 6 -32 2 -2753 -4 -2757 -6 -4 -1869 -7 -2054 -4
l-33 1 0 1380 c0 1307 1 1380 18 1381 9 0 166 1 347 2 l330 2 0 1045 0 1045
-37 -1 c-21 0 -38 3 -38 7 0 4 -12 4 -27 0 -25 -6 -89 -7 -103 -1 -3 1 -9 1
-15 0 -32 -6 -97 -5 -101 2 -3 5 -10 6 -15 2 -16 -9 -110 -11 -115 -2 -3 5
-10 5 -16 2 -15 -10 -529 -11 -535 -1 -2 4 -9 5 -14 1 -16 -9 -110 -11 -115
-2 -3 5 -10 5 -16 2 -15 -9 -169 -10 -175 -1 -2 4 -9 5 -14 1 -15 -9 -110 -11
-115 -2 -3 4 -12 4 -20 1 -22 -8 -524 -10 -524 -1 0 4 -12 3 -27 -1 -25 -6
-89 -7 -103 -1 -3 1 -9 1 -15 0 -32 -6 -97 -5 -101 2 -3 5 -10 6 -15 2 -16 -9
-110 -11 -115 -2 -3 5 -10 5 -16 2 -15 -10 -529 -11 -535 -1 -2 4 -9 5 -14 1
-16 -9 -110 -11 -115 -2 -3 5 -10 5 -16 2 -14 -9 -169 -11 -174 -2 -3 4 -15 4
-27 0 -27 -9 -88 -9 -103 1 -6 3 -14 4 -17 0z"/>
<path d="M6807 1179 c-110 -25 -206 -106 -259 -220 -70 -149 -44 -303 71 -419
67 -68 191 -119 276 -115 47 3 137 26 165 43 213 132 269 372 131 562 -49 66
-118 117 -176 130 -5 1 -19 7 -29 12 -25 13 -131 17 -179 7z m83 -59 c0 5 12
7 28 4 163 -28 262 -144 267 -313 2 -42 0 -80 -3 -86 -4 -5 -8 -18 -9 -28 -9
-58 -80 -137 -158 -176 -53 -27 -68 -30 -135 -28 -127 5 -231 73 -284 186 -32
70 -29 198 6 266 25 48 118 150 118 130 0 -6 4 -5 8 1 14 21 115 52 139 43 14
-5 23 -5 23 1z"/>
<path d="M6784 1000 c-20 -8 -27 -39 -25 -107 1 -19 1 -39 0 -80 0 -21 1 -53
4 -71 2 -18 2 -34 -2 -36 -3 -3 -4 -31 -1 -63 5 -55 6 -58 32 -58 33 -1 35 8
32 108 -1 42 2 78 7 78 46 6 78 -1 99 -23 12 -13 20 -35 20 -57 0 -20 8 -52
18 -71 15 -31 22 -35 60 -36 47 -1 48 0 27 69 -8 26 -14 50 -14 52 0 20 -36
74 -54 82 -21 10 -21 10 -2 17 30 10 55 51 61 99 4 33 1 47 -16 65 -11 12 -29
22 -40 22 -10 0 -21 4 -24 9 -7 11 -153 12 -182 1z m123 -39 c25 -2 60 -46 59
-73 -2 -41 -35 -63 -92 -63 l-49 0 -1 60 c0 80 2 85 39 81 18 -2 37 -4 44 -5z"/>
</g>
</svg>
