<svg viewBox="0 0 52.5 50" xmlns="http://www.w3.org/2000/svg"><g fill="none" stroke="#fff" stroke-linejoin="round" stroke-width="2"><g stroke-linecap="round"><circle cx="40.02" cy="44" r="4.86"/><circle cx="12.49" cy="44" r="4.86"/><path d="m32.73 19.71v4.05c0 1.79 1.45 3.24 3.24 3.24h5.67"/><path d="m45.68 44.81h2.43c1.79 0 3.24-1.45 3.24-3.24v-5.97c0-1.91-.61-3.76-1.74-5.29l-9.59-12.98c-1.53-2.07-3.94-3.28-6.51-3.28h-29.12c-1.79 0-3.24 1.45-3.24 3.24v24.29c0 1.79 1.45 3.24 3.24 3.24h3.24"/><path d="m17.34 44.81h17.82"/></g><path d="m17.34 11.61v-.81c0-2.23 1.82-4.05 4.05-4.05 2.23 0 4.05 1.82 4.05 4.05v.81"/><path d="m21.39.27v3.24"/><path d="m11.68 5.94 2.43 1.62"/><path d="m31.11 5.94-2.43 1.62"/><path d="m19.77 24.56v-4.85h-4.85v4.85h-4.86v4.86h4.86v4.86h4.85v-4.86h4.86v-4.86z" stroke-linecap="round"/></g></svg>