<svg viewBox="0 0 52.16 50" xmlns="http://www.w3.org/2000/svg"><g fill="none" stroke="#fff" stroke-miterlimit="10" stroke-width="2"><path d="m18.36 39.98 2.99-1.73c1.1-.64 1.48-2.04.84-3.15l-1.15-1.99"/><path d="m15.06 36.57.42.73c.48.84 1.11 1.58 1.86 2.19 0 0 4.47 3.16 5.89 4.33 2.26 1.85.83 3.51-.27 4.14l-1 .58c-1.99 1.15-3.78-.5-4.72-1.26s-5.89-4.33-5.89-4.33c-.75-.61-1.38-1.36-1.86-2.19l-.42-.73" stroke-linecap="round"/><path d="m32.24 13.35c2.2-1.27 5.06-.45 6.29 1.69s.52 5.02-1.69 6.29"/><path d="m24.59 3.95c-1.8 5.84-4.65 12.51-8.04 14.47l-11.97 6.91c-3.31 1.91-4.44 6.13-2.53 9.44l.58 1c1.91 3.31 6.13 4.44 9.44 2.53l11.97-6.91c3.39-1.96 10.59-1.1 16.55.27.98.22 1.75-.83 1.24-1.7l-15.15-26.24c-.5-.87-1.8-.73-2.09.23z"/><path d="m16.55 18.42 7.48 12.96"/><path d="m37.9 7.95 2.02-7.55"/><path d="m44.35 19.12 7.55 2.03"/><path d="m42.32 12.85 6.38-3.69"/></g></svg>