<svg viewBox="0 0 50 50" xmlns="http://www.w3.org/2000/svg"><g fill="none" stroke="#fff" stroke-miterlimit="10" stroke-width="2"><path d="m36.36 36.64 4.51-14.99" stroke-linecap="round"/><path d="m32.45.22s.19 2.59-.84 3.56-5.36 2.6-6.08 4.15-2.26 8.84-2.26 8.84c.39.06 2.98.42 4.21-.49s1.94-3.27 2.53-3.66 2.02-.69 3.7 1.51-3.4 5.76-3.4 5.76c-.71.06-4.25-3.23-6.32-2.19s1.21 3.36 3.22 5.49 3.88 1.75 6.86.58l-2.59 11.2s-1.02 3.33 1.51 3.95c2.72.67 3.41-2.46 3.41-2.46"/><path d="m45.66.15c0 1.42 2.19 5.16 2.9 8.72s-.44 16.73-.44 16.73-.35 4.06-2.35 3.8c-2.12-.27-1.58-2.35-1.58-2.35"/><path d="m45.4 19.9-2.33 13.66s-.5 3.37-3.3 2.94c-2.5-.39-2.29-3.43-2.29-3.43" stroke-linecap="round"/><path d="m13.64 13.36-4.51 14.99" stroke-linecap="round"/><path d="m17.55 49.78s-.19-2.59.84-3.56 5.36-2.6 6.08-4.15 2.26-8.84 2.26-8.84c-.39-.06-2.98-.42-4.21.49s-1.94 3.27-2.53 3.66-2.02.69-3.7-1.51 3.4-5.76 3.4-5.76c.71-.06 4.25 3.23 6.32 2.19s-1.21-3.36-3.22-5.49-3.88-1.75-6.86-.58l2.59-11.2s1.02-3.33-1.51-3.95c-2.72-.67-3.41 2.46-3.41 2.46"/><path d="m4.34 49.85c0-1.42-2.19-5.16-2.9-8.72s.44-16.73.44-16.73.35-4.06 2.35-3.8c2.12.27 1.58 2.35 1.58 2.35"/><path d="m4.6 30.1 2.33-13.66s.5-3.37 3.3-2.94c2.5.39 2.29 3.43 2.29 3.43" stroke-linecap="round"/></g></svg>