<svg viewBox="0 0 56.67 50" xmlns="http://www.w3.org/2000/svg"><g fill="none" stroke="#fff" stroke-width="2"><g stroke-miterlimit="10"><path d="m50.81 11.99h4.73v34.3h-20.11l-2.36 2.36h-9.47l-2.36-2.36h-20.11v-34.3h4.73"/><path d="m46.08 8.44h4.73v33.12h-15.38c-2.29 0-3.84 0-4.73 2.37h-2.37v-28.46c0-3.84 2.31-7.03 7.1-7.03h2.37"/><path d="m28.33 43.92h-2.37c-.89-2.37-2.44-2.37-4.73-2.37h-15.37v-33.11h4.73"/></g><path d="m25.97 43.92h2.37v-28.45c0-3.84-1.62-7.72-5.39-9.01l-12.36-5.11v33.12l12.35 5.14c2.07.81 2.59 1.95 3.03 4.32z" stroke-linejoin="round"/><path d="m46.08 23.11-4.14-3.64-4.14 3.64v-17.03h8.28z" stroke-linejoin="round"/></g></svg>