<svg viewBox="0 0 58.29 50" xmlns="http://www.w3.org/2000/svg"><g fill="none" stroke="#fff" stroke-linejoin="round" stroke-width="2"><g stroke-linecap="round"><path d="m2.33 15.86c1.35 0 2.44 1.09 2.44 2.44v6.09c0 1.35-1.09 2.44-2.44 2.44"/><path d="m7.2 26.83h30.47c1.35 0 2.44 1.09 2.44 2.44v6.09c0 1.35-1.09 2.44-2.44 2.44h-30.47"/><path d="m8.42 26.83c1.35 0 2.44 1.09 2.44 2.44v6.09c0 1.35-1.09 2.44-2.44 2.44"/><path d="m4.76 37.8h29.26c1.35 0 2.44 1.09 2.44 2.44v6.09c0 1.35-1.09 2.44-2.44 2.44h-29.26"/><path d="m4.76 37.8c1.35 0 2.44 1.09 2.44 2.44v6.09c0 1.35-1.09 2.44-2.44 2.44"/></g><path d="m36.35 47.26 15.95-13.26c.88-.76 1.22-.95 1.22-2.3v-6.52"/><path d="m39.8 36.8s16.21-13.9 16.63-14.26c.42-.35.74-1.1.74-1.81v-6.09c0-1.35-1.09-2.44-2.44-2.44h-4.88" stroke-linecap="round"/><path d="m33.26 26.16s16.62-14.25 17.04-14.6c.48-.45.78-1.08.78-1.79v-6.1c0-1.35-1.09-2.44-2.44-2.44h-29.26l-18.27 14.63h30.47c1.35 0 2.44 1.09 2.44 2.44v6.09c0 1.35-1.09 2.44-2.44 2.44h-29.25" stroke-linecap="round"/></g></svg>