<svg viewBox="0 0 38.69 50" xmlns="http://www.w3.org/2000/svg"><g fill="none" stroke="#fff" stroke-width="2"><path d="m27.95 43.45v1.65c0 2.08-1.68 3.76-3.76 3.76h-19.25c-2.08 0-3.76-1.68-3.76-3.76v-40.2c0-2.08 1.68-3.76 3.76-3.76h19.26c2.08 0 3.76 1.68 3.76 3.76v4.39" stroke-linejoin="round"/><g stroke-linecap="round"><path d="m8.88 5.18h11.46" stroke-linejoin="round"/><path d="m13.01 46.14h3.67" stroke-linejoin="round"/><path d="m22.22 21.2-7.06-7.06s-4.83 4.17-4.51 8.64c.44 6.22 10.03 17.28 17.55 16.77 6.16-.42 8.07-4.19 8.07-4.19l-7.05-6.8s-3.31 3.73-4.79 3.8-5.88-4.33-5.85-5.85 3.63-5.32 3.63-5.32z" stroke-miterlimit="10"/><path d="m25.22 13.48c5.21 0 12.29 6.87 12.29 11.73" stroke-linejoin="round"/><path d="m24.48 17.71c4.09 0 9.65 5.39 9.65 9.21" stroke-linejoin="round"/></g></g></svg>