<svg id="a" xmlns="http://www.w3.org/2000/svg" viewBox="0 0 62.11 50"><defs><style>.b,.c{fill:none;stroke:#fff;stroke-width:2px}.b{stroke-linecap:round;stroke-linejoin:round}.c{stroke-miterlimit:10}</style></defs><path class="b" d="M31.09,43.65H9.04c-2.15,0-3.89-1.73-3.89-3.86v-12.87c0-1.52.45-3.01,1.31-4.28l1.29-1.92-5.19-1.29c-.72,0-1.3-.58-1.3-1.29v-2.57c0-.71.58-1.29,1.3-1.29h6.49l2.59,3.86,3.89,1.29h15.56"/><polyline class="c" points="9.04 28.55 11.63 31.12 18.12 31.12"/><path class="b" d="M6.44,43.03v4.48c0,.71.58,1.29,1.3,1.29h9.08c.72,0,1.3-.58,1.3-1.29v-1.29"/><path class="b" d="M31.09,43.65h22.05c2.15,0,3.89-1.73,3.89-3.86v-12.87c0-1.52-.45-3.01-1.31-4.28l-1.29-1.92,5.19-1.29c.72,0,1.3-.58,1.3-1.29v-2.57c0-.71-.58-1.29-1.3-1.29h-6.49l-2.59,3.86-3.89,1.29h-15.56"/><path class="c" d="M31.09,1.92h-12.97c-1.73,0-3.19,1.21-3.89,2.57-.42.82-3.89,12.37-3.89,12.37"/><path class="c" d="M31.09,1.92h12.97c1.73,0,3.19,1.21,3.89,2.57.42.82,3.89,12.37,3.89,12.37"/><polyline class="c" points="53.14 28.55 50.54 31.12 44.06 31.12"/><path class="b" d="M55.73,43.07v4.44c0,.71-.58,1.29-1.3,1.29h-9.08c-.72,0-1.3-.58-1.3-1.29v-1.29"/><line class="c" x1="18.12" y1="38.5" x2="44.06" y2="38.5"/></svg>