<svg viewBox="0 0 52.33 50" xmlns="http://www.w3.org/2000/svg"><g fill="none" stroke="#fff" stroke-linejoin="round" stroke-width="2"><path d="m25.13 1.14-13.07 13.11 2.96 2.97c1.05 1.05 1.39.9 1.96.33.63-.63.44-2.44 2.18-2.95.96-.28 2.26.31 3.2 1.29.97.95 1.56 2.25 1.28 3.21-.51 1.75-2.32 1.56-2.94 2.19-.57.57-.72.92.33 1.97l4.07 4.08 3.91-3.92c1.05-1.05 1.39-.9 1.96-.33.63.63.44 2.44 2.18 2.95.96.28 2.26-.31 3.2-1.29.97-.95 1.56-2.25 1.28-3.21-.51-1.75-2.32-1.56-2.94-2.18-.57-.57-.72-.92.33-1.97l3.15-3.16z" stroke-linecap="round"/><path d="m27.79 30.08 11.26 11.3 2.75-2.76c.98-.98.84-1.3.31-1.83-.58-.58-2.26-.41-2.73-2.03-.26-.89.29-2.1 1.19-2.98.88-.91 2.08-1.46 2.97-1.19 1.62.48 1.44 2.16 2.02 2.74.53.53.85.67 1.83-.31l3.78-3.79-3.63-3.64c-.98-.98-.84-1.3-.31-1.83.58-.58 2.26-.41 2.73-2.03.26-.89-.29-2.1-1.19-2.98-.88-.91-2.08-1.46-2.97-1.2-1.62.47-1.44 2.16-2.02 2.74-.53.53-.85.67-1.82-.31l-1.46-1.47"/><path d="m14.21 48.88 13.07-13.11-2.96-2.97c-1.05-1.05-1.39-.9-1.96-.33-.63.63-.44 2.44-2.18 2.95-.96.28-2.26-.31-3.2-1.29-.97-.95-1.56-2.25-1.28-3.21.51-1.75 2.32-1.56 2.94-2.19.57-.57.72-.92-.33-1.97l-4.07-4.08-3.91 3.92c-1.05 1.05-1.39.9-1.96.33-.63-.63-.44-2.44-2.18-2.95-.96-.28-2.26.31-3.2 1.29-.97.95-1.56 2.25-1.28 3.21.51 1.75 2.32 1.56 2.94 2.18.57.57.72.92-.33 1.97l-3.15 3.16z" stroke-linecap="round"/></g></svg>