<svg viewBox="0 0 45.34 50" xmlns="http://www.w3.org/2000/svg"><g fill="none" stroke="#fff" stroke-width="2"><g stroke-linecap="round" stroke-linejoin="round"><rect height="47.63" rx="2.24" width="39.47" x="4.71" y="1.19"/><path d="m1.16 10.92h7.1"/><path d="m1.16 18.16h7.1"/><path d="m1.16 25.4h7.1"/><path d="m1.16 32.63h7.1"/><path d="m1.16 39.87h7.1"/></g><path d="m32.51 36.26v-3.11c0-1.77-4.27-4.65-7.77-4.65s-7.77 2.88-7.77 4.65v3.11" stroke-miterlimit="10"/><path d="m24.74 26.2c-2.8 0-4.66-2.37-4.66-5.3v-1.46c0-2.93 1.86-5.3 4.66-5.3s4.66 2.37 4.66 5.3v1.46c0 2.93-1.86 5.3-4.66 5.3z" stroke-miterlimit="10"/></g></svg>