<svg viewBox="0 0 50 50" xmlns="http://www.w3.org/2000/svg"><g fill="none" stroke="#fff" stroke-miterlimit="10" stroke-width="2"><path d="m33.78 41.59v-1.14c0-2.85-5.86-4.13-8.78-4.13s-8.78 1.28-8.78 4.13v1.14"/><path d="m25 33.23c2.17 0 3.61-1.78 3.61-3.97v-1.32c0-2.19-1.44-3.97-3.61-3.97s-3.61 1.78-3.61 3.97v1.32c0 2.19 1.44 3.97 3.61 3.97z"/><path d="m7.93 35.28c-2.17 0-3.61-1.78-3.61-3.98v-1.33c0-2.2 1.44-3.98 3.61-3.98s3.61 1.78 3.61 3.98v1.33c0 2.2-1.44 3.98-3.61 3.98z"/><path d="m42.14 35.28c2.17 0 3.61-1.78 3.61-3.98v-1.33c0-2.2-1.44-3.98-3.61-3.98s-3.61 1.78-3.61 3.98v1.33c0 2.2 1.44 3.98 3.61 3.98z"/><path d="m48.85 49.78v-8.3c0-1.7-1.39-3.05-3.1-3.05h-3.1l-5.16 5.16h-6.2s-.46 4.13 3.1 4.13h6.2l4.13-4.15"/><path d="m1.22 49.78v-8.3c0-1.7 1.37-3.05 3.08-3.05h3.1l5.16 5.16h6.2s.46 4.13-3.1 4.13h-6.2l-4.12-4.15"/><path d="m39.97 47.69v2.09"/><path d="m10.03 47.69v2.09"/><path d="m10.9 47.72h28.2"/><path d="m12.09 1.25h26.85c1.14 0 2.07.92 2.07 2.07v14.46c0 1.14-.92 2.07-2.07 2.07h-4.13v4.44c0 .96-1.19 1.4-1.82.67l-4.38-5.11h-16.52c-1.14 0-2.07-.92-2.07-2.07v-14.46c0-1.14.92-2.07 2.07-2.07z"/></g></svg>