<svg viewBox="0 0 50 50" xmlns="http://www.w3.org/2000/svg"><g fill="none" stroke="#fff" stroke-linejoin="round" stroke-width="2"><path d="m4.62 12.47h2.15c1.89 0 3.42 1.53 3.42 3.42v2.28h-2.28l-2.28 2.28v3.42h-4.55"/><path d="m8.09 41.91 2.1-2.1v-5.7l2.28-2.28v-2.27l-2.45-2.28h-5.52l-2.87 2.86"/><path d="m48.92 26.14h-4.56l-2.28-3.42h-2.28l-1.14 1.14h-3.42l-5.7-5.7h-7.97v-2.28c0-2.52 2.04-4.56 4.56-4.56h2.28l2.28-2.28h5.7l3.09-3.09"/><path d="m30.7 42.09h-3.42v-7.98l-2.28-2.28h-3.42v-4.55l3.42-3.42h4.56l5.69 5.7v7.97z"/><circle cx="25" cy="25" r="23.92"/></g></svg>