<svg viewBox="0 0 51.12 50" xmlns="http://www.w3.org/2000/svg"><g fill="none" stroke="#fff" stroke-width="2"><g stroke-linejoin="round"><path d="m25.56.12v10.2"/><path d="m11.13 3.46 5.9 8.84"/><path d="m.57 12.59 10.22 5.1"/><path d="m50.55 12.59-10.22 5.1"/><path d="m39.99 3.46-5.9 8.84"/></g><path d="m5.68 41.5h39.38c1.47 0 2.65 1.19 2.65 2.65v4.82h-44.68v-4.82c0-1.47 1.19-2.65 2.65-2.65z" stroke-miterlimit="10"/><path d="m29.61 13.79h-8.48c-4.25 0-7.91 3.01-8.72 7.19l-3.99 20.52h33.91l-3.99-20.52c-.81-4.17-4.47-7.19-8.72-7.19z" stroke-miterlimit="10"/><path d="m25.77 33.1c-1.33 0-2.41 1.08-2.41 2.41s1.08 2.41 2.41 2.41 2.41-1.08 2.41-2.41-1.08-2.41-2.41-2.41z" stroke-linejoin="round"/><path d="m25.77 19.46c-1.33 0-2.41 1.03-2.41 2.5 0 2.52.6 5.6.8 6.33s.73 1.6 1.6 1.6 1.4-.88 1.6-1.6c.2-.73.8-3.81.8-6.33 0-1.46-1.08-2.5-2.41-2.5z" stroke-linejoin="round"/></g></svg>