<svg viewBox="0 0 53.11 50" xmlns="http://www.w3.org/2000/svg"><g fill="none" stroke="#fff" stroke-width="2"><g stroke-linejoin="round"><path d="m32.75 41.76h-18.05l-5.92 6.77c-.69.78-1.98.3-1.98-.74v-6.02h-4.51c-.62 0-1.13-.51-1.13-1.13v-18.05c0-.62.51-1.13 1.13-1.13h30.46c.62 0 1.13.51 1.13 1.13v18.05c0 .62-.51 1.13-1.13 1.13z"/><path d="m36.14 31.6h3.4l5.92 6.77c.69.78 1.98.3 1.98-.74v-6.02h3.38c.62 0 1.13-.51 1.13-1.13v-15.8c0-.62-.51-1.13-1.13-1.13h-28.21c-.62 0-1.13.51-1.13 1.13v4.51"/><path d="m35.02 11.3v-3.38c0-.62-.51-1.13-1.13-1.13h-25.95c-.62 0-1.13.51-1.13 1.13v11.28"/><path d="m19.23 4.53v-2.26c0-.62.51-1.13 1.13-1.13h22.57c.62 0 1.13.51 1.13 1.13v9.03"/><path d="m11.58 28.22v-3.25h-6.85"/></g><path d="m4.73 36.83h4.39" stroke-miterlimit="10"/><path d="m11.64 36.83h4.04" stroke-miterlimit="10"/><path d="m17.43 36.83h4.04" stroke-miterlimit="10"/><path d="m10.19 30.83h-3.24" stroke-miterlimit="10"/><path d="m6.9 24.94v11.64" stroke-miterlimit="10"/><path d="m13.55 36.64 2.48-11.7h1.1l2.53 11.58" stroke-linejoin="round"/><path d="m14.33 32.54h4.38" stroke-miterlimit="10"/><path d="m26.06 33.22 2.83 6.06" stroke-miterlimit="10"/><path d="m23.7 25.2 4.83-.03s.65 1.31.65 5.8-.61 5.66-.61 5.66h-4.82s-.56-1-.56-5.6.51-5.83.51-5.83z" stroke-linejoin="round"/></g></svg>