<svg viewBox="0 0 54.53 50" xmlns="http://www.w3.org/2000/svg"><g fill="none" stroke="#fff" stroke-linejoin="round" stroke-width="2"><path d="m8.29 41.49v-2.37c0-1.31 1.06-2.37 2.37-2.37h4.74c1.31 0 2.37 1.06 2.37 2.37v2.37"/><path d="m22.52 41.49v-2.37c0-1.31 1.06-2.37 2.37-2.37h4.74c1.31 0 2.37 1.06 2.37 2.37v2.37"/><path d="m36.75 41.49v-2.37c0-1.31 1.06-2.37 2.37-2.37h4.74c1.31 0 2.37 1.06 2.37 2.37v2.37"/><path d="m1.17 49.79v-2.37c0-1.31 1.06-2.37 2.37-2.37h4.74c1.31 0 2.37 1.06 2.37 2.37v2.37"/><path d="m15.41 49.79v-2.37c0-1.31 1.06-2.37 2.37-2.37h4.74c1.31 0 2.37 1.06 2.37 2.37v2.37"/><path d="m29.64 49.79v-2.37c0-1.31 1.06-2.37 2.37-2.37h4.74c1.31 0 2.37 1.06 2.37 2.37v2.37"/><path d="m43.87 49.79v-2.37c0-1.31 1.06-2.37 2.37-2.37h4.74c1.31 0 2.37 1.06 2.37 2.37v2.37"/><path d="m2.36 1.17h49.81v29.65h-49.81z"/></g></svg>