<svg viewBox="0 0 52.33 50" xmlns="http://www.w3.org/2000/svg"><g fill="none" stroke="#fff" stroke-width="2"><path d="m30.5 35.87-11.92 7.55-17.33-11.92" stroke-linecap="round" stroke-linejoin="round"/><path d="m33.75 10.92v2.16" stroke-miterlimit="10"/><path d="m18.58 20.67v2.16" stroke-miterlimit="10"/><path d="m30.5 24.93-17.84-12.05 8.03-4.85 4.72 2.96 13.76 8.64v17.33l-8.67 5.59z" stroke-linecap="round" stroke-miterlimit="10"/><path d="m35.59 17.39 6.2-3.92c-.94-.6-1.14-1.44 0-2.16l-6.82-4.31c-1.14.72-2.47.6-3.41 0l-6.24 3.94" stroke-miterlimit="10"/><path d="m17.31 16.01-6.78 4.28c1.14.72.95 1.55.01 2.15l6.82 4.31c.94-.59 2.26-.71 3.4 0l6.43-4.06" stroke-miterlimit="10"/><g stroke-linecap="round" stroke-linejoin="round"><path d="m30.5 25.04-11.92 7.54-17.33-10.83 12.81-7.93"/><path d="m21.9 8.78 11.85-7.61 17.33 10.83-11.97 7.59"/><path d="m30.5 30.47-11.92 7.53-17.33-11.92"/><path d="m51.08 17.42-11.91 7.54"/><path d="m30.5 41.29-11.92 7.54-17.33-11.91"/><path d="m51.08 28.25-11.91 7.55"/><path d="m51.08 22.83-11.91 7.55"/></g></g></svg>