<svg viewBox="0 0 50.91 50" xmlns="http://www.w3.org/2000/svg"><g fill="none" stroke="#fff" stroke-linejoin="round" stroke-width="2"><path d="m20.49 21.39v-12.59h16.02v18.08" stroke-linecap="square"/><path d="m42.68 1.51-7.98 1.16-9.11 23.96" stroke-linecap="square"/><path d="m20.49 17.61h8.53" stroke-linecap="round"/><path d="m32.45 17.61h4.06" stroke-linecap="round"/><path d="m15.25 16.18c-2.55 1.94-3.71 2.89-3.58 7.51" stroke-linecap="square"/><g stroke-linecap="round"><path d="m20.17 25.97c-.65-1.06-1.29-1.65-2.35-1.82-1.65-.27-3.34.6-6.17.6s-5.08-1.3-6.81-.52c-2.61 1.18-3.59 4.26-3.5 6.18.72 14.67 5.7 12.83 5.7 12.83"/><path d="m7.05 26.88c-1.51.43-2.17 1.99-2.12 3.15"/><path d="m12.14 19.61s-.78-2.57-3.41-3.65-5.57.65-5.57.65 1.34 3.28 3.67 3.93 5.31-.92 5.31-.92z"/></g><path d="m49.63 40.77h-8.2c-1.3.84-2.2 4.79-3.93 4.79s-4.19-4.75-6.09-4.79-21.58 0-21.58 0" stroke-linecap="square"/><path d="m42.69 44.25h6.8v4.24h-39.66v-4.24h20.59" stroke-linecap="round"/><path d="m35.86 33.73c0-1.72-1.68-4.27-7.22-4.27-3.74 0-5.17 1.58-5.17 1.58" stroke-linecap="round"/><path d="m24.51 33.73c0-1.72-1.68-4.27-7.22-4.27-4.37 0-6.98 1.89-7.45 3.95-.22.94 0 3.85 0 3.85h39.62v-3.36c0-1.72-1.85-4.44-7.39-4.44s-6.68 2.17-6.68 2.17" stroke-linecap="round"/></g></svg>