<svg viewBox="0 0 50 50" xmlns="http://www.w3.org/2000/svg"><g fill="none" stroke="#fff" stroke-miterlimit="10" stroke-width="2"><path d="m31.33 35.03c2.28 0 4.22-2.17 4.22-4.22v-9.5c0-3.49-6.89-5.28-10.56-5.28s-10.56 1.79-10.56 5.28v9.5c0 2.05 1.94 4.22 4.22 4.22"/><path d="m25 12.86c2.46 0 4.22-1.72 4.22-4.22v-2.11c0-2.5-1.76-4.22-4.22-4.22s-4.22 1.72-4.22 4.22v2.11c0 2.5 1.76 4.22 4.22 4.22z"/><path d="m31.33 49.81v-26.4"/><path d="m18.67 23.41v26.4"/><path d="m25 33.97v15.84"/><path d="m5.52 33.97c-2.05 0-4.22-1.11-4.22-3.17v-10.56c0-3.49 6.2-5.28 9.5-5.28h2.11"/><path d="m5.52 47.69v-25.33"/><path d="m10.8 11.8c-2.46 0-4.22-1.72-4.22-4.22v-2.11c0-2.5 1.76-4.22 4.22-4.22s4.22 1.72 4.22 4.22v2.11c0 2.5-1.76 4.22-4.22 4.22z"/><path d="m44.54 33.97c2.05 0 4.22-1.11 4.22-3.17v-10.56c0-3.49-6.2-5.28-9.5-5.28h-2.11"/><path d="m44.54 47.69v-25.33"/><path d="m39.26 11.8c2.46 0 4.22-1.72 4.22-4.22v-2.11c0-2.5-1.76-4.22-4.22-4.22s-4.22 1.72-4.22 4.22v2.11c0 2.5 1.76 4.22 4.22 4.22z"/></g></svg>