<svg viewBox="0 0 59.45 50" xmlns="http://www.w3.org/2000/svg"><g fill="none" stroke="#fff" stroke-miterlimit="10" stroke-width="2"><path d="m38.61 22.88-5.99-5.57h-4.08s-2.98 2.13-5.25 2.91-4.9.62-7.32-1.81c2.38-2.51 4.75-4.92 4.75-4.92l4.6-4.65c.87-.75 1.99-1.17 3.14-1.17h7.37c1.58 0 4.82 0 6.42-1.61l6.58-4.95"/><path d="m49.34 33.69c7.35-6.75 4.14-8.36 7.35-11.57l1.86-1.86"/><path d="m38.61 22.88s8.32 8.74 10.73 10.81-.9 7.59-4.78 4.55c-2.31-1.98-9.73-9.09-9.73-9.09"/><path d="m45.66 38.89c-.71 1.68-3.57 5.63-7.21 2.87-2.31-1.97-7.11-6.52-7.11-6.52"/><path d="m39.84 42.54c-1.65 3.34-4.55 4.68-7.18 2.61-1.84-1.45-4.64-4.31-4.64-4.31"/><path d="m33.52 45.7c-1 2.47-3.85 4.07-6.15 2.63-1.33-.83-3.57-2.43-3.57-2.43"/><path d="m23.8 10.37c-3.21-3.21-4.6-1.8-8.01-5.22l-3.09-2.74"/><path d="m5.64 31.41c-4.09-4.09.08-6.55-4.74-11.37"/><path d="m8.86 32.09-.02-.02c-1.11-1.16-2.96-1.19-4.11-.07l-1.64 1.57c-1.15 1.12-1.18 2.96-.07 4.12 1.12 1.16 2.98 1.2 4.14.07l1.62-1.56c1.15-1.11 1.18-2.97.07-4.12z"/><path d="m15.68 33.55-.02-.02c-1.11-1.16-2.96-1.19-4.11-.07l-4.77 4.65c-1.15 1.12-1.18 2.96-.07 4.12 1.12 1.16 2.98 1.2 4.14.07l4.75-4.64c1.15-1.11 1.18-2.97.07-4.12z"/><path d="m20.15 37.37-.02-.02c-1.11-1.16-2.95-1.21-4.11-.1l-4.37 4.27c-1.16 1.11-1.21 2.95-.1 4.12s2.97 1.22 4.14.1l4.36-4.26c1.16-1.1 1.2-2.96.1-4.12z"/><path d="m23 42.7-.02-.02c-1.12-1.15-2.96-1.17-4.11-.05l-1.12 1.09c-1.15 1.13-1.17 2.97-.05 4.12 1.13 1.16 2.99 1.18 4.14.05l1.11-1.07c1.14-1.12 1.16-2.97.05-4.12z"/><path d="m45.44 24.34c-3.82.79-4.79-.19-6.83-1.47"/></g></svg>