<svg viewBox="0 0 59.58 50" xmlns="http://www.w3.org/2000/svg"><g fill="none" stroke="#fff" stroke-miterlimit="10" stroke-width="2"><path d="m24.12 34.78h-3.03v-7.46"/><path d="m21.09 13.64v-12.43h37.29v33.57h-3.65"/><path d="m9.9 14.15c2.85 0 4.97-2.39 4.97-5.33v-1.78c0-2.94-2.13-5.33-4.97-5.33s-4.97 2.39-4.97 5.33v1.78c0 2.94 2.13 5.33 4.97 5.33z"/><path d="m16.12 36.02v-11.19s6.17-2.08 7.46-2.49c2.31-.73 3.73-2.21 3.73-4.97h-18.65c-4.45 0-7.46 1.88-7.46 7.46v11.19"/><path d="m39.74 49.69v-2.49c0-5.01-3.76-6.22-6.46-6.22h-3.23c-2.71 0-6.46 1.2-6.46 6.22v2.49"/><path d="m31.66 27.18c-2.31 0-4.35 1.64-4.35 3.98v2.53c0 2.34 2.04 3.98 4.35 3.98s4.35-1.64 4.35-3.98v-2.53c0-2.34-2.04-3.98-4.35-3.98z"/><path d="m55.9 49.69v-2.49c0-5.01-3.76-6.22-6.46-6.22h-3.23c-2.71 0-6.46 1.2-6.46 6.22v2.49"/><path d="m47.82 27.18c-2.31 0-4.35 1.64-4.35 3.98v2.53c0 2.34 2.04 3.98 4.35 3.98s4.35-1.64 4.35-3.98v-2.53c0-2.34-2.04-3.98-4.35-3.98z"/><path d="m30.06 11.48h20.73"/><path d="m30.06 17.41h20.73"/><path d="m30.06 23.35h10.78"/></g></svg>