<svg viewBox="0 0 42.83 50" xmlns="http://www.w3.org/2000/svg"><g fill="none" stroke="#fff" stroke-width="2"><path d="m8.59 17.29c1.08-2.11 3.63-3.56 6.17-3.56h1.74c3.6 0 6.51 2.92 6.51 6.51v11.96s-15.13 0-15.13 0" stroke-miterlimit="10"/><g stroke-linecap="round"><path d="m15.45 13.72h18.67c4.18 0 7.56 3.39 7.56 7.56v10.91h-18.67" stroke-miterlimit="10"/><path d="m28.54 18.74v-17.56h10.85l-2.66 3.84 2.66 3.2h-10.7" stroke-miterlimit="10"/><path d="m29.97 24.7h8.22v4.6h-8.22z" stroke-linejoin="round"/><path d="m1.15 20.49h17.33v11.72h-17.33z" stroke-miterlimit="10"/><path d="m1.34 20.64 8.54 7.01 8.53-7.01" stroke-miterlimit="10"/></g><path d="m28.51 32.14v16.78h-5.57v-16.78" stroke-linejoin="round"/></g></svg>