<svg viewBox="0 0 57.77 50" xmlns="http://www.w3.org/2000/svg"><g fill="none" stroke="#fff" stroke-width="2"><path d="m21.65 30.07h16.89l8.8 8.8c.76.76 2.06.22 2.06-.85v-7.95h3.62c2 0 3.62-1.62 3.62-3.62v-21.71c0-2-1.62-3.62-3.62-3.62h-31.37c-2 0-3.62 1.62-3.62 3.62v21.72c0 2 1.62 3.62 3.62 3.62z" stroke-miterlimit="10"/><path d="m14.41 10.77h-9.66c-2 0-3.62 1.62-3.62 3.62v21.72c0 2 1.62 3.62 3.62 3.62h4.83v7.95c0 1.07 1.3 1.61 2.06.85l8.8-8.8h9.65c2 0 3.62-1.62 3.62-3.62v-2.41" stroke-miterlimit="10"/><g stroke-linejoin="round"><path d="m30.09 15.6h2.41"/><path d="m36.12 15.6h2.42"/><path d="m42.16 15.6h2.41"/></g></g></svg>