<svg viewBox="0 0 75.25 50" xmlns="http://www.w3.org/2000/svg"><path d="m21.31 37.37c-4.53 6.3-13.36 4.92-12.72-7.39.85-16.41 7.34-20.59 13.01-21.51s12.68 9.35 12.68 9.35-3.82 6.85-12.96 19.55zm38.81 4.32c1.65.54 6.45.52 7.01-11.52s-7.14-23.11-14.09-23.11c-5.78 0-11.33 9.49-11.33 9.49 3.14 4.56 12.45 23.18 18.41 25.14zm-37.89-40.49c-10.85.35-20.79 13.34-21.01 30.69-.19 14.9 9.4 18.27 16.24 16.48 9.24-2.42 20.21-25.4 20.21-25.4s11.95 24.84 23.14 25.59c2.17.15 12.89 1.32 13.22-17.09.29-16.15-9.07-30.22-20.07-30.17-8.31.04-15.53 10.39-15.53 10.39s-7.51-10.77-16.2-10.48z" fill="none" opacity=".98" stroke="#fff" stroke-miterlimit="10" stroke-width="2"/></svg>