<svg viewBox="0 0 50 50" xmlns="http://www.w3.org/2000/svg"><g fill="none" stroke="#fff" stroke-width="2"><g stroke-miterlimit="10"><path d="m11.36 38.67h-6.82v6.82"/><path d="m3.25 34.71c-4-8.77-2.29-19.42 4.92-26.63 9.29-9.29 24.44-9.24 33.73.05l3.07 3.07"/><path d="m46.75 15.34c4 8.77 2.3 19.42-4.92 26.64-9.29 9.29-24.44 9.24-33.73-.05l-3.07-3.07"/><path d="m38.64 11.39h6.82v-6.83"/></g><path d="m8.33 21.21 2.2-5.32 3.24 1.08c.9-1.26 1.98-2.33 3.2-3.2l-1.08-3.24 5.32-2.2 1.53 3.05c1.48-.25 3.01-.26 4.53 0l1.53-3.05 5.32 2.2-1.08 3.24c1.26.9 2.33 1.98 3.2 3.2l3.24-1.08 2.2 5.32-3.05 1.53c.25 1.48.26 3.01 0 4.53l3.05 1.53-2.2 5.32-3.24-1.08c-.9 1.26-1.98 2.33-3.2 3.2l1.08 3.24-5.32 2.2-1.53-3.05c-1.48.25-3.01.26-4.53 0l-1.53 3.05-5.32-2.2 1.08-3.24c-1.26-.9-2.33-1.98-3.2-3.2l-3.24 1.08-2.2-5.32 3.05-1.53c-.25-1.48-.26-3.01 0-4.53z" stroke-linejoin="round"/><path d="m19.9 27.11c1.17 2.82 4.4 4.15 7.22 2.99 2.82-1.17 4.16-4.4 2.99-7.22s-4.4-4.15-7.22-2.99c-2.82 1.17-4.16 4.4-2.99 7.22z" stroke-linejoin="round"/></g></svg>