<svg viewBox="0 0 50 50" xmlns="http://www.w3.org/2000/svg"><g fill="none" stroke="#fff" stroke-miterlimit="10" stroke-width="2"><path d="m36.45 32.16h2.09l3.12-6.25v-3.12h-17.7-17.7v3.12l3.12 6.25h2.08"/><path d="m11.46 36.33v-9.38"/><path d="m36.45 36.33v-9.38"/><path d="m33.33 22.79v-4.17c0-2.55-6.34-4.17-8.33-4.17s-8.33 1.62-8.33 4.17v4.17"/><path d="m25 11.63c2.38 0 4.17-1.8 4.17-4.02v-2.38c0-2.22-1.78-4.02-4.17-4.02s-4.17 1.8-4.17 4.02v2.38c0 2.22 1.78 4.02 4.17 4.02z"/><path d="m9.51 43.62c0-2.35-1.84-4.17-4.17-4.17s-4.17 1.82-4.17 4.17"/><path d="m22.64 43.62c0-2.35-1.84-4.17-4.17-4.17s-4.17 1.82-4.17 4.17"/><path d="m35.76 43.62c0-2.35-1.84-4.17-4.17-4.17s-4.17 1.82-4.17 4.17"/><path d="m16.67 49.86c0-2.35-1.84-4.17-4.17-4.17s-4.17 1.82-4.17 4.17"/><path d="m29.17 49.86c0-2.35-1.84-4.17-4.17-4.17s-4.17 1.82-4.17 4.17"/><path d="m41.66 49.86c0-2.35-1.84-4.17-4.17-4.17s-4.17 1.82-4.17 4.17"/><path d="m48.88 43.62c0-2.35-1.84-4.17-4.17-4.17s-4.17 1.82-4.17 4.17"/><path d="m14.59 13.42-3.13 2.08v7.29"/></g></svg>