<svg viewBox="0 0 47.5 50" xmlns="http://www.w3.org/2000/svg"><g fill="none" stroke="#fff" stroke-width="2"><g stroke-miterlimit="10"><path d="m46.02 9.09c-1.46-1.76-4.94-5.77-6.36-7.42-.96 1.29-7.92 5.3-15.91 5.3s-14.94-4.01-15.91-5.3c-1.42 1.66-4.9 5.67-6.36 7.42 1.66 2.19 4.24 6.89 3.18 9.54-1.81 4.56-2.19 8.96 0 13.78 4.57 10.07 11.92 6.47 19.09 15.91 7.16-9.44 15.57-5.83 20.15-15.91 2.19-4.83.75-9.23-1.06-13.78-1.05-2.65 1.52-7.36 3.18-9.54z"/><path d="m11.19 29.44c-1.11-.38-1.96-1.25-2.97-2.76 2.7-1.31 5.67-.53 7.6 2.26"/><path d="m19.51 34.77c-2.32 1.41-5.38 2-7.91-2.61 2.87-1.74 6-.87 7.91 2.61z"/><path d="m10.1 23.14c-1.18-.68-2.07-1.93-2.26-4.15 3.26-.18 5.69 1.62 5.96 4.83"/><path d="m10.84 15.82c-.8-.99-1.07-2.43-.25-4.55 3.11.83 4.57 3.24 3.38 6.31"/><path d="m36.3 29.44c1.11-.38 1.96-1.25 2.97-2.76-2.7-1.31-5.67-.53-7.6 2.26"/><path d="m27.99 34.77c2.32 1.41 5.38 2 7.91-2.61-2.87-1.74-6-.87-7.91 2.61z"/><path d="m37.39 23.14c1.18-.68 2.07-1.93 2.26-4.15-3.26-.18-5.69 1.62-5.96 4.83"/><path d="m36.66 15.82c.8-.99 1.07-2.43.25-4.55-3.11.83-4.57 3.24-3.38 6.31"/></g><path d="m23.75 16.05 1.75 4.4 4.63.23-3.55 3.1 1.11 4.4-3.94-2.35-3.94 2.35 1.11-4.4-3.55-3.1 4.63-.23z" stroke-linejoin="round"/></g></svg>