<svg viewBox="0 0 51.81 50" xmlns="http://www.w3.org/2000/svg"><g fill="none" stroke="#fff" stroke-miterlimit="10" stroke-width="2"><path d="m13.5 33.38h2.08"/><path d="m13.5 30.26h2.08"/><path d="m13.5 27.14h2.08"/><path d="m13.5 36.5h2.08"/><path d="m13.5 39.62h2.08"/><path d="m28.76 27.99h10.59v21.01h-10.59z"/><path d="m30.27 23.69h7.57v4.3h-7.57z"/><path d="m32.54 19.4h3.03v4.3h-3.03z"/><path d="m31.79 31.81h4.54"/><path d="m31.79 35.25h4.54"/><path d="m31.79 38.69h4.54"/><path d="m31.79 42.12h4.54"/><path d="m31.79 45.56h4.54"/><path d="m34.06 19.4v-5.7" stroke-linecap="round"/><path d="m21.73 28.41v-10.23l-1.04-.78-9.39 7.8v23.8h10.19" stroke-linecap="round"/><path d="m11.3 36.52h-8.35v12.48h8.35"/><path d="m5.03 36.52v-4.68l6.27-3.9"/><path d="m45.74 39.64h-6.27"/><path d="m45.74 42.76h-6.27"/><path d="m45.74 45.88h-6.27"/><path d="m39.47 36.52h9.39v12.48h-9.39z"/><path d="m7.12 38.86v7.8"/><path d="m21.75 49v-15.45h7.86"/><path d="m29.61 30.6h-5.24v2.95"/><path d="m29.61 49h-8.34"/><path d="m20 33.55h1.75" stroke-linecap="round"/><path d="m25.08 17.52 10.06-13.15 3.9 2.13 5.27 6.97h3.62l2.41 3" stroke-linecap="square"/><path d="m1.44 14.3 6.03-9h2.41l2.41-3 2.41-1 6.03 7h3.62l3.56 4.71" stroke-linecap="square"/><path d="m14.32 10.46-1.39.91-.81 1.77-4.17 2.11-2.92 4.97"/><path d="m41.12 17.4 1.07 2 3.33.82 2.93 4.78"/></g></svg>