<svg viewBox="0 0 50 50" xmlns="http://www.w3.org/2000/svg"><g fill="none" stroke="#fff" stroke-linejoin="round" stroke-width="2"><path d="m27.77 7.83v-5.54h-8.86v5.01c-1.62.42-3.15 1.06-4.56 1.89l-3.54-3.54-6.27 6.27 3.54 3.54c-.83 1.41-1.47 2.94-1.89 4.56h-5.01v8.86h5.01c.42 1.62 1.06 3.15 1.89 4.56l-3.54 3.54 6.27 6.27 3.54-3.54c1.41.83 2.94 1.47 4.56 1.89v5.01h8.86v-5.54"/><path d="m29.99 12.26h1.1l5.54-5.54"/><path d="m36.63 43.28-6.65-6.65h-6.65c-6.73 0-12.19-5.46-12.19-12.19s5.46-12.19 12.19-12.19"/><path d="m24.45 29.99h-1.11c-3.06 0-5.54-2.48-5.54-5.54s2.48-5.54 5.54-5.54h8.86l4.43-4.43h5.54"/><path d="m42.17 35.53h-4.43l-5.54-5.54h-1.11"/><circle cx="38.85" cy="4.5" r="3.32"/><circle cx="45.5" cy="14.47" r="3.32"/><circle cx="45.5" cy="24.45" r="3.32"/><circle cx="45.5" cy="35.53" r="3.32"/><circle cx="38.85" cy="45.5" r="3.32"/><path d="m31.09 24.45h9.97"/><path d="m22.23 24.45h2.22"/><path d="m26.66 24.45h2.22"/><path d="m26.66 29.99h2.22"/><path d="m25.55 12.26h2.22"/></g></svg>