<svg viewBox="0 0 49.22 50" xmlns="http://www.w3.org/2000/svg"><g fill="none" stroke="#fff" stroke-width="2"><path d="m34.48 3.2h13.51v27.02h-3.12" stroke-linejoin="round"/><g stroke-miterlimit="10"><path d="m11.62 16.71h2.08"/><path d="m18.82 16.7c0-2.84 2.11-5.14 4.71-5.13 2.6 0 4.71 2.3 4.7 5.14 0 2.84-2.11 5.14-4.71 5.13-2.6 0-4.71-2.3-4.7-5.14z"/><path d="m28.25 7.36h-19.74c0 1.72-1.4 3.12-3.12 3.12v12.51c2.08 0 3.12 1.35 3.12 3.07h19.74"/><path d="m34.48 7.36h6.23c0 2.08 1.4 3.18 3.12 3.18v6.17"/><path d="m31.37.09v4.15"/><path d="m31.37 7.36v4.16"/><path d="m31.37 14.63v4.16"/><path d="m31.37 21.91v4.15"/></g><path d="m31.37 32.3-2.08-2.08h-28.06v-27.02h27.02" stroke-linejoin="round"/><path d="m26.17 34.37-4.16-4.15" stroke-miterlimit="10"/><path d="m29.29 35.41-6.18 6.18c-.72-.6-1.64-.98-2.65-.98-2.3 0-4.16 1.86-4.16 4.16s1.86 4.16 4.16 4.16c1.9 0 2.82-1.33 3.64-2.08l16.62-16.62c1.73-1.73 2.08-3.79 2.08-6.23v-3.12l-9.35 9.35" stroke-miterlimit="10"/><path d="m36.56 38.53 3.06 3.06c.72-.6 1.64-.98 2.65-.98 2.3 0 4.16 1.86 4.16 4.16s-1.86 4.16-4.16 4.16c-1.9 0-2.82-1.33-3.64-2.08l-5.2-5.2" stroke-miterlimit="10"/></g></svg>