<svg viewBox="0 0 50 50" xmlns="http://www.w3.org/2000/svg"><g fill="none" stroke="#fff" stroke-linejoin="round" stroke-width="2"><circle cx="25.57" cy="26.8" r="3.3" stroke-linecap="round"/><path d="m25.57 30.1v18.11" stroke-linecap="square"/><path d="m28.17 29.47 9.71 19.13" stroke-linecap="square"/><path d="m14.3 48.6 8.7-19.04" stroke-linecap="square"/><g stroke-linecap="round"><path d="m18.13 41.09h15.54"/><path d="m22.28 27.59-4.37 2.52-6.05-10.47 26.65-15.39"/><path d="m44.56 14.72-16.74 9.67"/></g><path d="m41.88 10.09 3.23 5.58 3.81-2.19-7.15-12.38-3.81 2.2 2.07 3.57"/><path d="m12.41 20.59-6.66 3.85 4.94 8.57 6.67-3.85" stroke-linecap="round"/><path d="m6.9 26.32-4.78 2.76" stroke-linecap="round"/><path d="m4.87 33.84 4.65-2.69" stroke-linecap="round"/><path d="m1.57 28.13 3.85 6.66" stroke-linecap="square"/></g></svg>