<svg viewBox="0 0 59.06 50" xmlns="http://www.w3.org/2000/svg"><g fill="none" stroke="#fff" stroke-linejoin="round" stroke-width="2"><path d="m46.24 6.8-5.63-5.63-28.83 28.82 5.63 5.63c1.64-1.64 4.29-1.64 5.93 0s1.64 4.29 0 5.93l5.63 5.63 28.82-28.82-5.63-5.63c-1.64 1.64-4.29 1.64-5.93 0s-1.64-4.29 0-5.93z"/><path d="m27.23 21.36 5.27 2.01 4.15-3.51-.05 5.6 4.38 2.91-5.1 1.64-1.64 5.1-2.91-4.38-5.6.05 3.51-4.15z"/><path d="m50.94 26.05-3.27-3.27m-1.63-1.63-3.27-3.27m-1.63-1.63-3.27-3.27m-1.64-1.64-3.27-3.27"/><path d="m29.51 7.2-1.8-1.95-26.45 26.44 5.63 5.63c1.64-1.64 4.29-1.64 5.93 0s1.64 4.29 0 5.93l5.63 5.63 3.69-3.69"/></g></svg>