<svg viewBox="0 0 49.14 50" xmlns="http://www.w3.org/2000/svg"><g fill="none" stroke="#fff" stroke-miterlimit="10" stroke-width="2"><path d="m41.68 44.96v-2.09c0-1.19-2.87-3.12-5.21-3.12s-5.22 1.93-5.22 3.12v2.09"/><circle cx="36.46" cy="37.44" r="11.47"/><path d="m36.46 37.49c-1.88 0-3.13-1.59-3.13-3.56v-1.19c0-1.97 1.25-3.56 3.13-3.56s3.13 1.59 3.13 3.56v1.19c0 1.97-1.25 3.56-3.13 3.56z"/><path d="m22.69 45.59h-21.49v-22.97c0-2.04 1.57-3.7 3.51-3.7h24.88c1.95 0 3.52 1.66 3.52 3.7v.48"/><path d="m16.71 1.09h.89c5.67 0 10.27 4.6 10.27 10.27v7.56h-21.43v-7.56c0-5.67 4.6-10.27 10.27-10.27z"/><path d="m24.36 18.92v-6.68c0-4.69-3.23-7.45-7.2-7.45-3.98 0-7.2 2.76-7.2 7.45v6.68"/><path d="m20.89 28.65c0 1.29-.67 2.44-1.68 3.12v6.11c0 .99-.8 1.79-1.79 1.79h-.52c-.99 0-1.8-.8-1.8-1.79v-6.12c-1.01-.67-1.67-1.81-1.67-3.11 0-2.07 1.67-3.74 3.73-3.74s3.73 1.68 3.73 3.74z"/></g></svg>