<svg viewBox="0 0 53.37 50" xmlns="http://www.w3.org/2000/svg"><g fill="none" stroke="#fff" stroke-width="2"><path d="m35.25 29.72c0-.4-.04-.79-.09-1.17l2.06-1.93-2.55-4.41-2.7.82c-.62-.48-1.3-.88-2.03-1.18l-.64-2.74h-5.09l-.64 2.74c-.74.3-1.42.7-2.03 1.18l-2.7-.82-2.55 4.41 2.06 1.93c-.05.38-.09.77-.09 1.17s.04.79.09 1.17l-2.06 1.93 2.55 4.41 2.7-.82c.62.48 1.3.88 2.03 1.18l.64 2.74h5.09l.64-2.74c.74-.3 1.42-.7 2.03-1.18l2.7.82 2.55-4.41-2.06-1.93c.05-.38.09-.77.09-1.17z" stroke-linejoin="round"/><g stroke-miterlimit="10"><circle cx="26.76" cy="29.72" r="3.18"/><path d="m7.79 31.92c-.08-.72-.13-1.46-.13-2.2 0-7.09 3.87-13.28 9.61-16.58"/><path d="m35.31 46.81c-2.57 1.29-5.47 2.01-8.54 2.01s-5.97-.72-8.54-2.01"/><path d="m45.74 31.92c.08-.72.13-1.46.13-2.2 0-7.09-3.87-13.28-9.61-16.58"/><path d="m33.28 15.57v-1.82c0-2.16-4.28-3.28-6.55-3.28s-6.55 1.11-6.55 3.28v1.86"/><path d="m26.73 7.73c1.53 0 2.62-1.07 2.62-2.62v-1.31c0-1.55-1.09-2.62-2.62-2.62s-2.62 1.07-2.62 2.62v1.31c0 1.55 1.09 2.62 2.62 2.62z"/><path d="m52.02 48.65v-1.82c0-2.16-4.28-3.28-6.55-3.28s-6.55 1.11-6.55 3.28v1.86"/><path d="m45.47 40.81c1.53 0 2.62-1.07 2.62-2.62v-1.31c0-1.55-1.09-2.62-2.62-2.62s-2.62 1.07-2.62 2.62v1.31c0 1.55 1.09 2.62 2.62 2.62z"/><path d="m14.45 48.65v-1.82c0-2.16-4.28-3.28-6.55-3.28s-6.55 1.11-6.55 3.28v1.86"/><path d="m7.9 40.81c1.53 0 2.62-1.07 2.62-2.62v-1.31c0-1.55-1.09-2.62-2.62-2.62s-2.62 1.07-2.62 2.62v1.31c0 1.55 1.09 2.62 2.62 2.62z"/></g></g></svg>