<svg id="a" xmlns="http://www.w3.org/2000/svg" viewBox="0 0 52.33 50"><defs><style>.b,.c{stroke-miterlimit:10}.b,.c,.d,.e{fill:none;stroke:#000;stroke-width:2px}.b,.d{stroke-linecap:round}.d,.e{stroke-linejoin:round}</style></defs><ellipse class="c" cx="26.17" cy="19.78" rx="24.96" ry="8.84"/><path class="c" d="M45.41,25.03c-4.58-1.96-11.5-3.21-19.25-3.21s-15.01,1.31-19.58,3.36"/><path class="c" d="M1.2,29.62c0,4.88,11.18,8.84,24.96,8.84s24.96-3.96,24.96-8.84"/><path class="c" d="M51.13,19.78v20.26c0,3.9-7.12,7.2-17.01,8.39-2.5.3-5.17.46-7.95.46s-5.46-.16-7.95-.46c-9.89-1.19-17.01-4.49-17.01-8.39v-20.26"/><line class="b" x1="26.17" y1="21.77" x2="26.17" y2="14.46"/><line class="b" x1="37.95" y1="22.87" x2="43.94" y2="17.16"/><line class="b" x1="13.31" y1="22.87" x2="7.32" y2="17.16"/><rect class="b" x="16.68" y="1.7" width="18.97" height="5.62"/><line class="d" x1="18.81" y1="7.33" x2="18.81" y2="11.17"/><line class="d" x1="33.52" y1="11.17" x2="33.52" y2="7.33"/><polyline class="e" points="10.34 12.9 10.34 1.11 2.86 6.46 10.2 6.46"/><polyline class="e" points="41.99 12.9 41.99 1.11 49.47 6.46 42.13 6.46"/><path class="b" d="M34.12,41.62v6.82c-2.5.3-5.17.46-7.95.46s-5.46-.16-7.95-.46v-6.82h15.91Z"/><line class="b" x1="26.17" y1="32.43" x2="26.17" y2="35.35"/><line class="b" x1="35.21" y1="31.69" x2="35.21" y2="34.61"/><line class="b" x1="41.93" y1="30.1" x2="41.93" y2="33.02"/><line class="b" x1="47.33" y1="27.54" x2="47.33" y2="30.46"/><line class="b" x1="16.78" y1="31.69" x2="16.78" y2="34.61"/><line class="b" x1="10.06" y1="30.1" x2="10.06" y2="33.02"/><line class="b" x1="4.67" y1="27.54" x2="4.67" y2="30.46"/></svg>