<svg viewBox="0 0 55.83 50" xmlns="http://www.w3.org/2000/svg"><g fill="none" stroke="#000" stroke-linejoin="round" stroke-width="2"><path d="m22.09 1.24c-5.4 0-9.58 3.68-10.42 6.51-3.8.51-6.33 3.78-6.33 7.84 0 .31.02.62.05.92-2.45 1.2-4.15 4.35-4.15 8.05 0 2.35.94 5.05 2.61 6.64-.87 3.91.64 11.62 8.62 10.92 2.28 5.19 6.58 7.7 14.87 6.19v-47.07h-5.24z"/><path d="m19.48 15.58c-4.51 0-7.82-1.09-7.82-7.82"/><path d="m11.66 23.39c2.09 1.37 5.62.82 7.51-1.17 2.5-2.62 5.3-2.87 8.12.09"/><path d="m27.3 10.36c-3.22 1.22-6.65.28-7.82-2.61"/><path d="m27.33 37.38c-2.98-1.12-5.28.35-6.19 2.48"/><path d="m14.27 35.12c-2.08-.33-3.91-2.28-3.91-3.91"/><path d="m12.46 42.13c0-4.76 2.7-10.92 9.62-10.92"/><path d="m31.05 1.24h3.72v5.64c2.48.47 4.31 1.31 6.09 2.46l4.08-3.99 5.57 5.53-3.97 4.13c1.14 1.79 2.01 3.58 2.48 6.06h5.57v7.43h-5.57c-.47 2.48-1.31 4.18-2.46 5.97l3.99 4.02-5.53 5.54-4.17-3.99c-1.79 1.14-3.61 2-6.09 2.46v5.82h-3.72"/><path d="m31.05 34.52c5.47 0 9.91-4.4 9.91-9.82s-4.44-9.82-9.91-9.82"/><path d="m7.76 19.71c2.16 0 3.91 1.53 3.91 3.69 0 1.7-1.09 3.37-2.61 3.91"/></g></svg>