<svg viewBox="0 0 59.78 50" xmlns="http://www.w3.org/2000/svg"><g fill="none" stroke="#000" stroke-miterlimit="10" stroke-width="2"><path d="m22.46 19c-5.02 0-9.03-6.34-7.65-12.58"/><path d="m29.91 12.51c-3.46.73-7.22-1.25-7.45-4.98"/><path d="m29.91 35.03c-5.09 0-7.52 1.88-7.52 5.01"/><path d="m16.62 15.62c-2.25.56-4.28 3.33-4.28 5.62"/><path d="m46.55 44.49c.71-1.21 1.11-2.59 1.11-4.07s-.4-2.87-1.11-4.07"/><path d="m36 16.9c2.22.56 3.95 2.05 3.95 4.34"/><path d="m29.91 19.99c4.29 0 7.52-3.46 7.52-7.52v-5.01"/><path d="m47.47 27.31c-4.53 0-8.78 4.46-8.78 9.36v3.37"/><path d="m39.9 31.73c-2.04-2.24-5.86-3.43-9.98-2.81"/><path d="m45.71 18.95c1.53 1.53 3.8 1.52 5.32 0l2.66-2.66"/><path d="m56.26 31.02c-1.26 1.4-2.93 2.35-4.83 2.57"/><path d="m44.96 6.19v3.77"/><path d="m6.68 16.51c-3.23.99-5.61 4.41-5.61 8.49 0 2.55.93 4.85 2.43 6.46-.19 1.02-.24 2.1-.11 3.2.6 5.21 4.83 9.01 9.44 8.5 1.22 3.29 4.35 5.66 8.29 5.66 4.97 0 8.79-3.76 8.79-8.4v-31.77c0-4.33-3.17-7.47-7.52-7.47-3.57 0-6.62 2-7.58 5.24-5.14.16-8.57 5.4-8.13 10.09z"/><path d="m12.84 43.16c-3.84-9.04 2.38-14.4 8.3-14.02 0-.35 0-1.23 0-1.63 0-3.08 2.72-3.76 5.01-3.76"/><path d="m14.41 31.44c-2.34-.54-4.2-2.57-4.2-4.68"/><path d="m56.27 31.03c.27 1.14.35 2.37.2 3.63-.59 5.21-4.76 9.01-9.31 8.5-1.2 3.29-4.59 5.66-8.48 5.66-4.9 0-8.78-4.14-8.78-8.78v-31.71c0-4.33 3.24-7.15 7.52-7.15 3.52 0 6.57 1.77 7.52 5.01 4.25.13 8.3 5.2 8.73 10.1 2.92 1.21 5.01 4.46 5.01 8.28 0 2.55-.93 4.85-2.43 6.46"/></g></svg>