<svg viewBox="0 0 50 50" xmlns="http://www.w3.org/2000/svg"><g fill="none" stroke="#000" stroke-linejoin="round" stroke-width="2"><path d="m47.17 48.74h-44.3c-.94 0-1.7-.83-1.7-1.86v-40.97c0-1.03.76-1.86 1.7-1.86h44.26c.94 0 1.7.83 1.7 1.86v41.01c0 1-.74 1.82-1.66 1.82z" stroke-linecap="square"/><path d="m8.24 1.26v5.59" stroke-linecap="round"/><path d="m16.62 1.26v5.59" stroke-linecap="round"/><path d="m25 1.26v5.59" stroke-linecap="round"/><path d="m33.38 1.26v5.59" stroke-linecap="round"/><path d="m41.76 1.26v5.59" stroke-linecap="round"/><g stroke-linecap="square"><path d="m2.72 13.71h44.56"/><path d="m44.1 26.27h-38.2"/><path d="m44.1 36.44h-38.2"/><path d="m14.53 17.99v26.28"/><path d="m35.51 17.99v26.28"/><path d="m25 17.99v26.28"/></g></g></svg>