<svg viewBox="0 0 48.71 50" xmlns="http://www.w3.org/2000/svg"><g fill="none" stroke="#000" stroke-miterlimit="10" stroke-width="2"><path d="m8.91 12.12-.84.84c-.92.93-1.2 2.15-.61 2.74l1.07 1.06c.59.59 1.81.31 2.74-.61l.84-.84c.72-.72 1.08-1.67.87-2.33l-.83-2.65c-.21-.66.06-1.51.95-2.4s2.15-1.2 2.74-.61l1.07 1.06c.59.59.32 1.81-.61 2.74l-.84.84"/><path d="m16.37 7.85 2.51-2.51"/><path d="m8 16.23-2.51 2.51"/><path d="m18.04 17.9c-5.09 5.09-11.83 6.59-15.07 3.36s-1.74-9.98 3.35-15.07c5.09-5.09 11.83-6.6 15.07-3.36 3.24 3.23 1.74 9.98-3.35 15.07z"/><path d="m2.97 21.26 3.35 3.35c3.24 3.23 9.98 1.73 15.07-3.36s6.58-11.84 3.35-15.07l-3.35-3.35"/><path d="m39.38 25.43-.55-.9c-.6-.99-1.6-1.49-2.23-1.1l-1.14.69c-.63.38-.65 1.5-.05 2.49l.55.9c.47.77 1.21 1.28 1.82 1.24l2.46-.16c.61-.04 1.29.37 1.87 1.32s.58 2.11-.05 2.49l-1.14.69c-.63.38-1.63-.11-2.23-1.1l-.55-.9"/><path d="m41.48 32.75 1.63 2.7"/><path d="m36.03 23.78-1.64-2.7"/><path d="m32.47 32.08c-3.31-5.45-3.18-11.58.29-13.69s8.97.61 12.28 6.06 3.18 11.58-.29 13.69-8.97-.61-12.28-6.06z"/><path d="m32.76 18.39-3.59 2.18c-3.47 2.11-3.6 8.24-.29 13.69s8.81 8.17 12.28 6.06l3.59-2.18"/><path d="m11.6 36.85-.91.33c-1 .36-1.63 1.17-1.41 1.81l.41 1.16c.23.64 1.23.87 2.23.51l.91-.33c.78-.28 1.38-.85 1.46-1.41l.31-2.24c.08-.56.57-1.1 1.54-1.44.97-.35 2-.13 2.23.51l.41 1.16c.23.64-.4 1.45-1.41 1.81l-.91.33"/><path d="m18.59 36.31 2.73-.98"/><path d="m9.49 39.56-2.73.98"/><path d="m16.32 44.3c-5.53 1.97-11.02.72-12.28-2.79-1.26-3.52 2.2-7.97 7.73-9.94s11.02-.72 12.28 2.79c1.26 3.52-2.2 7.97-7.73 9.94z"/><path d="m4.03 41.51 1.3 3.64c1.26 3.52 6.76 4.77 12.28 2.79 5.53-1.97 8.99-6.43 7.73-9.94l-1.3-3.64"/></g></svg>