<svg viewBox="0 0 60.1 50" xmlns="http://www.w3.org/2000/svg"><g fill="none" stroke="#000" stroke-width="2"><path d="m54.09 7.62v-3.87c0-1.43-1.16-2.58-2.58-2.58h-43.89c-1.43 0-2.58 1.16-2.58 2.58v32.27" stroke-miterlimit="10"/><path d="m34.73 36.01h-2.58l-1.29 1.29h-6.45l-1.29-1.29h-21.95c0 2.85 2.31 5.16 5.16 5.16h28.4" stroke-miterlimit="10"/><g stroke-linejoin="round"><path d="m58.93 44.64v1.31c0 1.65-1.34 2.99-2.99 2.99h-15.33c-1.65 0-2.99-1.34-2.99-2.99v-32.01c0-1.65 1.34-2.99 2.99-2.99h15.33c1.65 0 2.99 1.34 2.99 2.99z"/><path d="m43.75 14.16h9.12" stroke-linecap="round"/><path d="m47.04 46.77h2.91" stroke-linecap="round"/></g></g></svg>