<svg viewBox="0 0 55.24 50" xmlns="http://www.w3.org/2000/svg"><g fill="none" stroke="#000" stroke-width="2"><g stroke-miterlimit="10"><path d="m4.56 8.13h-3.45v-6.91h6.91v3.45"/><path d="m50.68 8.13h3.46v-6.91h-6.92v3.45"/><path d="m11.48 2.37h32.28"/><path d="m4.56 33.5h-3.45v6.92h6.91v-3.46"/><path d="m50.68 33.5h3.46v6.92h-6.92v-3.46"/><path d="m11.48 39.26h9.22"/><path d="m34.54 39.26h9.22"/><path d="m2.26 11.59v18.45"/><path d="m52.99 11.59v18.45"/></g><path d="m24.52 38.43v10.35l3.1-2.07 3.11 2.07v-10.35" stroke-linecap="round" stroke-linejoin="round"/><path d="m13.74 12.57h27.76" stroke-miterlimit="10"/><path d="m18.79 17.62h17.67" stroke-miterlimit="10"/><path d="m29.08 24.58c.44.48 1.08.72 1.72.63 1.15-.15 2.19.73 2.24 1.9.03.65.37 1.25.92 1.6.98.63 1.22 1.98.51 2.91-.39.52-.51 1.2-.32 1.82.35 1.12-.32 2.3-1.46 2.56-.63.14-1.15.59-1.4 1.19-.44 1.09-1.71 1.55-2.74 1.01-.57-.3-1.26-.3-1.83 0-1.03.54-2.3.07-2.75-1.01-.25-.6-.77-1.05-1.4-1.19-1.13-.26-1.81-1.44-1.46-2.56.19-.62.07-1.3-.32-1.82-.71-.93-.47-2.28.5-2.91.54-.35.88-.95.91-1.6.05-1.17 1.08-2.05 2.24-1.9.64.08 1.28-.15 1.72-.63.79-.87 2.14-.87 2.92 0z" stroke-miterlimit="10"/><circle cx="27.63" cy="31.18" r="3.11" stroke-miterlimit="10"/></g></svg>