<svg viewBox="0 0 66.19 50" xmlns="http://www.w3.org/2000/svg"><g fill="none" stroke="#000" stroke-miterlimit="10" stroke-width="2"><ellipse cx="22.39" cy="27.79" rx="5.61" ry="6.59"/><ellipse cx="43.8" cy="27.79" rx="5.61" ry="6.59"/><path d="m65 39.8c0 2.64-10.56 7.32-14.43 8.94-.81.34-1.75.06-2.25-.66l-2.25-3.26c-.29-.41-.09-.98.39-1.13 1.37-.43 3.74-1.26 4.08-1.94.25-.51-.25-1.26-.79-1.88-4.72 2.22-10.46 3.51-16.65 3.51s-11.93-1.29-16.66-3.51c-.54.62-1.03 1.37-.79 1.88.34.68 2.71 1.51 4.08 1.94.48.15.67.72.39 1.13l-2.25 3.26c-.5.73-1.44 1.01-2.25.66-3.87-1.63-14.43-6.3-14.43-8.94-0-20.02 6.94-30.96 9.37-33.77 2.43-2.83 11.65-5.15 12.91-4.76 1.01.3 1.7 3.1 3.69 3.3l.24.03c1.84-.25 3.76-.37 5.7-.37s3.85.12 5.69.37l.24-.03c1.99-.19 2.69-2.99 3.69-3.3 1.26-.39 10.49 1.93 12.91 4.76 2.43 2.81 9.37 13.76 9.37 33.77z"/></g></svg>