<svg viewBox="0 0 45.6 50" xmlns="http://www.w3.org/2000/svg"><g fill="none" stroke="#000" stroke-miterlimit="10" stroke-width="2"><path d="m1.26 22.56h43.08v5.99h-43.08z"/><path d="m3.78 28.55h38.04v20.22h-38.04z"/><path d="m22.99 34.48s3.14-3.94 6.01-1.07-.11 5.19-1.23 6.35c-1.16 1.21-4.78 4.78-4.78 4.78s-3.76-3.54-4.95-4.74c-1.12-1.14-4.34-3.63-1.57-6.34 3.08-3.03 6.52 1.02 6.52 1.02z"/><path d="m34.17 12.4c0 4.47-2.61 8.34-6.38 10.17h-9.79c-3.77-1.83-6.38-5.69-6.38-10.17 0-6.23 5.05-11.27 11.27-11.27s11.27 5.05 11.27 11.27z"/><path d="m19.82 14.45v1.02c0 1.13.92 2.05 2.05 2.05h2.05c1.13 0 2.05-.92 2.05-2.05v-.57c0-.88-.56-1.67-1.4-1.94l-3.35-1.12c-.84-.28-1.4-1.06-1.4-1.94v-.57c0-1.13.92-2.05 2.05-2.05h2.05c1.13 0 2.05.92 2.05 2.05v1.02"/><path d="m22.9 7.27v-3.07"/><path d="m22.9 17.52v3.08"/></g></svg>