<svg viewBox="0 0 53.02 50" xmlns="http://www.w3.org/2000/svg"><g fill="none" stroke="#000" stroke-miterlimit="10" stroke-width="2"><path d="m51.98 42.32h-19.94l-2.22 2.21h-5.54l-3.32-2.21h-19.92v2.21c0 2.45 1.98 4.43 4.43 4.43h42.08c2.45 0 4.43-1.98 4.43-4.43z" stroke-linecap="round"/><path d="m13.58 11.31h-7c-1.22 0-2.21.99-2.21 2.21v28.79"/><path d="m48.66 42.32v-28.79c0-1.22-.99-2.21-2.21-2.21h-6.49"/><g stroke-linecap="round"><path d="m34.26 21.53v7.5"/><path d="m26.51 24.16v11.52"/><path d="m18.76 21.53v7.5"/><circle cx="26.51" cy="10.49" r="3.76"/><path d="m30.44 6.42v5.01s.2 3.31 2.71 3.31c2.96 0 2.75-4.24 2.75-4.24 0-5.19-4.21-9.4-9.4-9.4s-9.4 4.21-9.4 9.4 4.21 9.4 9.4 9.4c1.51 0 2.93-.35 4.19-.99"/></g></g></svg>