<svg viewBox="0 0 48.32 50" xmlns="http://www.w3.org/2000/svg"><g fill="none" stroke="#000" stroke-width="2"><path d="m16.89 41.64c.4-.4.81-1.04 2.08-1.04h14.53c1.15 0 7.5-6.36 8.3-7.26.78-.87 4.23-6.06 5.19-8.3-.6-.81-2.23-1.48-4.15-1.04-1.83.43-2.91 1.74-4.15 4.15l-4.76 2.47" stroke-linejoin="round"/><path d="m23.12 34.38h8.3c4.15 0 4.15-5.19 0-5.19h-5.48c-.86 0-2.49-2.08-3.86-2.08h-5.19c-1.4 0-3.14 1.14-4.15 2.08-1.56 1.56-4.15 4.15-4.15 4.15" stroke-linejoin="round"/><path d="m6.48 31.28h7.34v17.61h-7.34z" stroke-linejoin="round" transform="matrix(.70710678 -.70710678 .70710678 .70710678 -25.37 18.92)"/><path d="m6.51 36.45 2.08 2.08" stroke-linejoin="round"/><g stroke-miterlimit="10"><path d="m41.66 24.45c.09-.48.14-.98.14-1.51 0-5.43-3.41-10.35-9.34-14.5"/><path d="m27.27 8.43c-5.94 4.16-9.34 9.07-9.34 14.5 0 1.66.46 3.04 1.28 4.18"/><path d="m32.46 8.43c-.27.41-1.9.63-2.59.63s-2.31-.25-2.59-.63c0 0-3.01-5.58-2.88-5.79 1.09-1.95 3.36-1.58 5.48-1.04 3.02.77 4.23.62 4.81.6.05.8-2.22 6.23-2.22 6.23z"/><path d="m26.23 21.92v1.04c0 1.15.93 2.08 2.08 2.08h2.08c1.15 0 2.08-.93 2.08-2.08v-.58c0-.89-.57-1.69-1.42-1.97l-3.39-1.13c-.85-.28-1.42-1.08-1.42-1.97v-.58c0-1.15.93-2.08 2.08-2.08h2.08c1.15 0 2.08.93 2.08 2.08v1.04"/><path d="m29.35 14.66v-2.08"/><path d="m29.35 25.04v2.07"/></g></g></svg>