<svg viewBox="0 0 33.04 50" xmlns="http://www.w3.org/2000/svg"><g fill="none" stroke="#000" stroke-width="2"><path d="m29.61 16.65c3.47-2.38 1.7-7.81-2.5-7.7 1.41-3.96-3.21-7.32-6.55-4.76-1.18-4.03-6.9-4.03-8.09 0-3.33-2.57-7.96.79-6.55 4.76-4.2-.12-5.97 5.32-2.5 7.7-3.47 2.38-1.7 7.81 2.5 7.7-1.41 3.96 3.21 7.32 6.55 4.76 1.19 4.03 6.9 4.03 8.09 0 3.33 2.57 7.96-.79 6.55-4.76 4.2.12 5.97-5.32 2.5-7.7z" stroke-linejoin="round"/><g stroke-miterlimit="10"><path d="m15.25 41.81c-.99 2.34-2.31 4.72-3.97 6.29-.6-1.81-1.42-3.45-2.12-4.38-1.93 1.04-3.69 1.85-6.61 2.02 6.37-7.69 7.51-13.98 7.51-13.98"/><path d="m15.47 34.47s1.97 9.57 6.29 13.63c.6-1.81 1.42-3.45 2.12-4.38 1.93 1.04 3.69 1.85 6.61 2.02-6.37-7.69-7.51-13.98-7.51-13.98"/><circle cx="16.52" cy="16.64" r="10.05"/><path d="m13.37 18.74v1.05c0 1.16.94 2.1 2.1 2.1h2.1c1.16 0 2.1-.94 2.1-2.1v-.59c0-.9-.58-1.7-1.43-1.99l-3.42-1.14c-.86-.29-1.43-1.09-1.43-1.99v-.59c0-1.16.94-2.1 2.1-2.1h2.1c1.16 0 2.1.94 2.1 2.1v1.05"/><path d="m16.52 11.4v-2.1"/><path d="m16.52 21.89v2.09"/></g></g></svg>