<svg viewBox="0 0 50 50" xmlns="http://www.w3.org/2000/svg"><g fill="none" stroke="#000" stroke-miterlimit="10" stroke-width="2"><path d="m3.39 26.77c-1.29-.67-2.17-2.01-2.17-3.57v-18.06c-0-2.21 1.8-4.01 4.02-4.01h26.12c2.22 0 4.01 1.8 4.01 4.01v18.06c0 2.22-1.8 4.01-4.01 4.01h-2.01v5.02c0 .93-1.15 1.36-1.76.66l-4.26-5.68h-7.02"/><path d="m15.08 41.89v-2.01c0-1.14-3.14-3-5.7-3s-5.7 1.86-5.7 3v2.01"/><path d="m42.14 46.09v-2.01c0-1.14-3.19-3-5.8-3s-5.8 1.86-5.8 3v2.01"/><path d="m9.38 34.29c-1.81 0-3.01-1.53-3.01-3.42v-1.14c0-1.89 1.2-3.42 3.01-3.42s3.01 1.53 3.01 3.42v1.14c0 1.89-1.2 3.42-3.01 3.42z"/><path d="m36.34 38.5c1.81 0 3.01-1.53 3.01-3.42v-1.14c0-1.89-1.2-3.42-3.01-3.42s-3.01 1.53-3.01 3.42v1.14c0 1.89 1.2 3.42 3.01 3.42z"/><path d="m48.78 30.58v-2.01c0-1.14-3.21-3-5.84-3-1.53 0-3.26.63-4.43 1.38"/><path d="m43.23 22.99c1.81 0 3.01-1.53 3.01-3.42v-1.14c0-1.89-1.2-3.42-3.01-3.42s-3.01 1.53-3.01 3.42v1.14c0 1.89 1.2 3.42 3.01 3.42z"/><path d="m28.28 49.91v-1c0-1.14-3.39-3-6.15-3s-6.15 1.86-6.15 3v1"/><path d="m22.13 43.32c-1.81 0-3.01-1.53-3.01-3.42v-1.14c0-1.89 1.2-3.42 3.01-3.42s3.01 1.53 3.01 3.42v1.14c0 1.89-1.2 3.42-3.01 3.42z"/><path d="m15.29 16.18v1c0 1.11.9 2.01 2.01 2.01h2.01c1.11 0 2.01-.9 2.01-2.01v-.56c0-.86-.55-1.63-1.37-1.9l-3.28-1.09c-.82-.27-1.37-1.04-1.37-1.9v-.56c0-1.11.9-2.01 2.01-2.01h2.01c1.11 0 2.01.9 2.01 2.01v1"/><path d="m18.3 9.16v-3.01"/><path d="m18.3 19.19v3.01"/></g></svg>