<svg viewBox="0 0 50 50" xmlns="http://www.w3.org/2000/svg"><g fill="none" stroke="#000" stroke-width="2"><g stroke-miterlimit="10"><path d="m17.62 39.79-2.08-.11-.42-1.76 11.55-7.27c.4-.26.88-.37 1.35-.32l14.15 1.1.42 1.76-12.28 7.53c-.34.22-.75.32-1.16.28l-9.53-1.04"/><path d="m28.05 34.82-8.26 5.01s-1.14 9.73-1.14 9.73"/><path d="m33.78 45.74c-.71.26-1.49.5-2.32.7-3.9.93-7.31.64-7.62-.66l-1.27-5.29"/><path d="m29.09 46.86c.76-.09 1.56-.23 2.38-.43 3.9-.93 6.8-2.75 6.49-4.04l-1.27-5.29"/><path d="m39.23 19.47.04 2.59 6.41 4.3"/><path d="m48.52 2.52-4.24 12.97c-.14.46-.43.85-.82 1.11l-11.59 8.19-1.45-1.08 2.25-6.61.27.2c.85.63 2.79-.45 4.74-2.52.53-.55 1.05-1.17 1.56-1.85.5-.67.95-1.35 1.33-2 1.43-2.46 1.93-4.63 1.08-5.26l-.39-.28 5.81-3.95z"/><path d="m29.18 8.43c.38-.66.83-1.34 1.34-2.02 2.4-3.21 5.21-5.16 6.28-4.36l4.36 3.26"/><path d="m32.06 4.57c-.52.55-1.05 1.18-1.56 1.85-2.4 3.21-3.48 6.46-2.41 7.26l4.36 3.26"/><path d="m28.59 14.05 4.08 3.05.27.2c.85.63 2.79-.45 4.74-2.52.53-.55 1.05-1.17 1.56-1.85.5-.67.95-1.35 1.33-2"/><path d="m37.29 2.41 3.96 2.98.39.28c.85.63.36 2.8-1.08 5.26-.39.65-.83 1.33-1.33 2-.51.68-1.03 1.3-1.56 1.85"/><path d="m27.98 13.56c.93.33 2.7-.74 4.5-2.64.52-.55 1.05-1.18 1.56-1.86.51-.67.95-1.35 1.33-2"/><path d="m36.58 1.94c.65.76.13 2.82-1.21 5.12-.39.65-.82 1.33-1.33 2-.51.68-1.04 1.31-1.56 1.86"/><path d="m8.08 22.78c-.65-.4-1.32-.86-1.99-1.38-3.16-2.47-5.05-5.32-4.22-6.38l3.35-4.28"/><path d="m4.28 19.81c.54.54 1.15 1.08 1.82 1.6 3.16 2.47 6.38 3.62 7.2 2.57l3.35-4.28"/><path d="m13.68 23.5 3.14-4.01.21-.27c.65-.84-.39-2.79-2.42-4.79-.54-.54-1.15-1.07-1.82-1.6-.66-.51-1.33-.97-1.97-1.38"/><path d="m2.24 14.54 3.06-3.9.29-.38c.65-.84 2.8-.29 5.23 1.19.64.4 1.31.86 1.97 1.38.67.52 1.28 1.06 1.82 1.6"/><path d="m13.18 24.09c.35-.92-.68-2.72-2.54-4.56-.54-.53-1.16-1.07-1.83-1.6-.66-.52-1.33-.97-1.97-1.38"/><path d="m1.74 15.24c.78-.63 2.82-.07 5.1 1.32.64.4 1.31.85 1.97 1.38.67.52 1.29 1.07 1.83 1.6"/><path d="m21.11 15.13-1.93 13.16"/><path d="m16.82 19.49.21-.27c.65-.84-.39-2.79-2.42-4.79-.54-.54-1.15-1.07-1.82-1.6-.66-.51-1.33-.97-1.97-1.38-2.43-1.49-4.58-2.03-5.23-1.19l-.29.38-3.82-5.9 1.11-1.43 12.87 4.52c.45.15.84.45 1.09.85l7.94 11.77-1.11 1.43-1.4-.51"/></g><path d="m4.39 26.18.44.57" stroke-linecap="round" stroke-linejoin="round"/><path d="m22.3 9.65.44.57" stroke-linecap="round" stroke-linejoin="round"/><path d="m47.69 32.16.44.57" stroke-linecap="round" stroke-linejoin="round"/><path d="m10.35 47.39.44.58" stroke-linecap="round" stroke-linejoin="round"/><path d="m17.83 1.22-.38.62" stroke-linecap="round" stroke-linejoin="round"/><path d="m3.68 42.19-.37.61" stroke-linecap="round" stroke-linejoin="round"/><path d="m45.71 47.15-.38.61" stroke-linecap="round" stroke-linejoin="round"/><path d="m46.73 19.7-.38.62" stroke-linecap="round" stroke-linejoin="round"/><path d="m26.6 4.12.2.69" stroke-linecap="round" stroke-linejoin="round"/><path d="m25.97 26.1.2.69" stroke-linecap="round" stroke-linejoin="round"/><path d="m6.85 33.2.2.69" stroke-linecap="round" stroke-linejoin="round"/><path d="m42.02 40.42.2.69" stroke-linecap="round" stroke-linejoin="round"/><path d="m16.16 32.08-.37.62" stroke-linecap="round" stroke-linejoin="round"/></g></svg>