<svg viewBox="0 0 45.34 50" xmlns="http://www.w3.org/2000/svg"><g fill="none" stroke="#000" stroke-linejoin="round" stroke-width="2"><path d="m32.09 24.8v-4.19h-2.21c-.17-1.05-.41-1.18-.73-1.73l1.88-1.86-2.81-2.81-1.79 1.88c-.55-.31-.62-.55-1.67-.72v-2.09h-4.19v2.09c-1.05.17-1.19.41-1.74.73l-1.87-1.88-2.81 2.81 1.88 1.85c-.31.55-.55.68-.72 1.73h-3.11v4.19h3.11c.17 1.05.41 1.14.73 1.68l-1.88 1.84 2.81 2.79 1.86-1.89c.55.31.69.55 1.74.72v3.23h4.19v-3.23c1.05-.17 1.12-.41 1.67-.73l1.84 1.88 2.79-2.81-1.89-1.81c.31-.55.55-.64.71-1.68h2.21z"/><path d="m25.76 22.73c0 1.75-1.42 3.16-3.16 3.16s-3.16-1.42-3.16-3.16 1.42-3.16 3.16-3.16 3.16 1.42 3.16 3.16z"/><path d="m27.9 42.59v-2.13c0-3.66 2.1-4.64 4.92-7.38 2.54-2.46 4.62-6.25 4.62-11.08 0-7.66-6.89-13.85-14.77-13.85s-14.77 6.19-14.77 13.85c0 4.83 2.08 8.62 4.62 11.08 2.82 2.74 4.92 3.72 4.92 7.38v2.13"/><path d="m16.39 44.68h12.56"/><path d="m27.9 47.82h-2.09l-1.05 1.05h-2.09-2.09l-1.05-1.05h-2.09"/><path d="m19.53 41.54h6.28"/><path d="m17.79 4.5-1.08-4.04"/><path d="m9.35 9.38-2.96-2.96"/><path d="m4.47 17.83-4.04-1.09"/><path d="m4.47 27.58-4.04 1.08"/><path d="m9.35 36.03-2.96 2.96"/><path d="m35.99 36.03 2.96 2.96"/><path d="m40.87 27.58 4.04 1.08"/><path d="m40.87 17.83 4.04-1.09"/><path d="m35.99 9.38 2.96-2.96"/><path d="m27.55 4.5 1.08-4.04"/></g></svg>