<svg viewBox="0 0 50 50" xmlns="http://www.w3.org/2000/svg"><g fill="none" stroke="#000" stroke-width="2"><g stroke-linejoin="round"><path d="m43.25 27.36c.36-1.54.55-3.15.55-4.8 0-11.7-9.48-21.18-21.18-21.18s-21.18 9.48-21.18 21.18 9.48 21.18 21.18 21.18c1.62 0 3.19-.18 4.71-.52"/><path d="m34.21 26.09c.11-1.15.16-2.33.16-3.53 0-11.7-5.27-21.18-11.77-21.18s-11.77 9.48-11.77 21.18 5.27 21.18 11.77 21.18"/><path d="m42.61 22.55h-41.18" stroke-linecap="round"/><path d="m7.57 7.65c2.78 3.26 8.47 5.5 15.04 5.5s12.27-2.24 15.04-5.5" stroke-linecap="round"/><path d="m27.34 32.37c-1.5-.26-3.09-.4-4.73-.4-6.57 0-12.27 2.24-15.04 5.5"/><path d="m22.61 1.37v42.36" stroke-linecap="round"/><circle cx="37.91" cy="37.85" r="8.24" stroke-linecap="round"/><path d="m43.79 43.73 5.3 5.3"/></g><path d="m33.79 38.44c0-2.6 2.11-4.71 4.71-4.71" stroke-linecap="round" stroke-miterlimit="10"/></g></svg>