<svg viewBox="0 0 50 50" xmlns="http://www.w3.org/2000/svg"><g fill="none" stroke="#000" stroke-linejoin="round" stroke-width="2"><path d="m47.86 31.75c-2.91 9.87-12.04 17.07-22.86 17.07-13.16 0-23.83-10.67-23.83-23.83s10.67-23.83 23.83-23.83c.89 0 1.78.05 2.65.15.48.05.97.12 1.44.2"/><path d="m38.15 27.65c-.73 11.91-6.34 21.17-13.16 21.17-7.31 0-13.24-10.67-13.24-23.83s5.93-23.83 13.24-23.83"/><path d="m25 1.18v47.65"/><path d="m35.59 25h-34.42"/><path d="m8.08 41.77c3.12-3.67 9.53-6.18 16.92-6.18s13.8 2.51 16.92 6.18"/><path d="m8.08 8.23c3.12 3.67 9.53 6.18 16.92 6.18 1.89 0 3.71-.16 5.43-.47"/><path d="m2.14 18.25c2.92-9.87 12.05-17.08 22.86-17.08 13.16 0 23.83 10.67 23.83 23.83s-10.67 23.83-23.83 23.83c-.89 0-1.78-.05-2.65-.15-.48-.05-.97-.12-1.44-.2"/><path d="m11.85 22.35c.73-11.91 6.35-21.17 13.16-21.17 7.31 0 13.24 10.67 13.24 23.83s-5.93 23.83-13.24 23.83"/><path d="m25 48.82v-47.65"/><path d="m14.41 25h34.42"/><path d="m41.92 8.23c-3.12 3.67-9.53 6.18-16.92 6.18s-13.8-2.51-16.92-6.18"/><path d="m41.92 41.77c-3.12-3.67-9.53-6.18-16.92-6.18-1.89 0-3.71.16-5.43.47"/></g></svg>