<svg viewBox="0 0 66.83 50" xmlns="http://www.w3.org/2000/svg"><g fill="none" stroke="#000" stroke-miterlimit="10" stroke-width="2"><path d="m33.42 36.23c-15.79 0-26.03-3.4-28.07-4.21v4.21c.47 1.23 1.3 2.19 2.81 2.81 0 .61.2 1.55 1.88 2.72 3.42 2.39 11.79 7.1 23.38 7.1"/><path d="m33.42 30.25c2.48-3.21 5.61-2.22 7.61-6.18.93-1.85.14-3.91-.65-5.65-.45-1 1.1-2.12 1.83-2.86-.64-.7-2.99-2.88-3.77-3.53-.68.73-2.22 2.36-5.03 2.36s-4.35-1.62-5.03-2.36c-.78.65-3.13 2.84-3.77 3.53.74.74 2.29 1.86 1.83 2.86-.79 1.75-1.58 3.8-.65 5.65 2 3.96 5.13 2.96 7.61 6.18z"/><g stroke-linecap="round"><path d="m33.42 36.23c15.79 0 26.03-3.4 28.07-4.21v4.21c-.47 1.23-1.3 2.19-2.81 2.81 0 .61-.2 1.55-1.88 2.72-3.42 2.39-11.79 7.1-23.38 7.1"/><path d="m40.43 30.61c12.31-.5 19.15-2.6 21.05-4.21v-1.4s4.83-8.11 4.15-10.6-25.52-13.26-32.22-13.26-31.52 10.77-32.21 13.26c-.68 2.49 4.15 10.6 4.15 10.6v1.4c1.9 1.61 8.73 3.71 21.05 4.21"/></g></g></svg>