<svg viewBox="0 0 56.35 50" xmlns="http://www.w3.org/2000/svg"><g fill="none" stroke="#000" stroke-linejoin="round" stroke-width="2"><path d="m12.36 13.35c2.78 0 4.86-2.05 4.86-4.86v-2.43c0-2.81-2.08-4.87-4.86-4.87s-4.86 2.06-4.86 4.87v2.43c0 2.81 2.08 4.86 4.86 4.86z"/><path d="m18.44 49.82v-27.96h7.29c3.67 0 4.86-2.17 4.86-4.86h-20.66c-5.77 0-8.51 1.84-8.51 7.29v7.29c0 2.61 2.26 4.86 4.86 4.86"/><path d="m12.36 34.02v15.8"/><path d="m6.28 24.3v25.52"/><path d="m23.09 13.35v-6.07h32.05v24.35h-32.05v-6.12"/><path d="m36.74 14.47v9.24l7.63-4.62z"/></g></svg>