<svg viewBox="0 0 50 50" xmlns="http://www.w3.org/2000/svg"><g fill="none" stroke="#000" stroke-miterlimit="10" stroke-width="2"><path d="m12.36 45.58v-2.17c0-1.24-3.08-3.25-5.59-3.25s-5.59 2.01-5.59 3.25v6.52"/><path d="m6.77 37.57c2.02 0 3.35-1.66 3.35-3.71v-1.24c0-2.05-1.34-3.71-3.35-3.71s-3.35 1.66-3.35 3.71v1.24c0 2.05 1.34 3.71 3.35 3.71z"/><path d="m25.78 37.24v-2.17c0-1.24-3.08-3.25-5.59-3.25s-5.59 2.01-5.59 3.25v4.35"/><path d="m20.19 29.23c2.02 0 3.35-1.66 3.35-3.71v-1.24c0-2.05-1.34-3.71-3.35-3.71s-3.35 1.66-3.35 3.71v1.24c0 2.05 1.34 3.71 3.35 3.71z"/><path d="m32.49 20.34v-3.26c0-1.24-3.08-3.25-5.59-3.25s-5.59 2.01-5.59 3.25v1.09"/><path d="m26.89 11.24c2.02 0 3.35-1.66 3.35-3.71v-1.24c0-2.05-1.34-3.71-3.35-3.71s-3.35 1.66-3.35 3.71v1.24c0 2.05 1.34 3.71 3.35 3.71z"/><path d="m40.81 42.47c2.73-3.19 3.97-7.11 3.97-12.1v-18.47h3.35l-6.29-9.78-6.01 9.78h3.35v18.47c0 11.2-9.64 18.47-20.13 18.47h-10.06"/><path d="m25.23 42.07c5.85-2.79 6.33-8.33 6.51-10.37.14-1.62.19-2.17.19-2.17"/></g></svg>