<svg viewBox="0 0 54.4 50" xmlns="http://www.w3.org/2000/svg"><g fill="none" stroke="#000" stroke-miterlimit="10" stroke-width="2"><path d="m22.64 29.54v1.13c0 1.25 1.02 2.27 2.27 2.27h4.54c1.25 0 2.27-1.02 2.27-2.27v-2.9c0-.98-.63-1.84-1.55-2.15l-5.98-1.24c-.93-.31-1.55-1.18-1.55-2.15v-2.9c0-1.25 1.02-2.27 2.27-2.27h4.54c1.25 0 2.27 1.02 2.27 2.27v2.27"/><path d="m27.18 17.06v-4.54"/><path d="m27.18 32.94v4.54"/><g stroke-linecap="round"><path d="m16.97 39.94c-3.51-2.72-5.77-6.97-5.77-11.76 0-2.42.62-4.74 1.64-6.76l3 2.44 1.42-16.03-15.01 5.06 3.14 2.53c-1.29 2.93-2.04 6.17-2.04 9.58 0 13.16 10.67 23.83 23.83 23.83"/><path d="m37.44 10.06c3.51 2.72 5.77 6.97 5.77 11.76 0 2.42-.62 4.74-1.64 6.76l-3-2.44-1.42 16.03 15.01-5.06-3.14-2.53c1.29-2.93 2.04-6.17 2.04-9.58 0-13.16-10.67-23.83-23.83-23.83"/></g></g></svg>