<svg viewBox="0 0 50 50" xmlns="http://www.w3.org/2000/svg"><g fill="none" stroke="#000" stroke-width="2"><g stroke-linejoin="round"><path d="m17.7 41.56c.4-.4.81-1.04 2.09-1.04h14.6c1.16 0 7.53-6.39 8.34-7.3.78-.87 4.25-6.09 5.22-8.34-.6-.81-2.24-1.49-4.17-1.04-1.84.43-2.93 1.75-4.17 4.17l-4.78 2.48"/><path d="m23.96 34.26h8.34c4.17 0 4.17-5.22 0-5.22h-5.51c-.87 0-2.5-2.09-3.88-2.09h-5.22c-1.41 0-3.16 1.14-4.17 2.09-1.56 1.56-4.17 4.17-4.17 4.17"/><path d="m7.23 31.14h7.38v17.7h-7.38z" transform="matrix(.70710678 -.70710678 .70710678 .70710678 -25.08 19.43)"/><path d="m7.27 36.34 2.08 2.09"/></g><path d="m40.65 25.91-2.09-2.08h-3.13l-3.13-2.09h-2.08l-2.09-1.04-2.09 2.08h-3.13l-3.13 2.09v2.08" stroke-miterlimit="10"/><path d="m34.34 11.89c-2.74 1.59-3.08 5.68-3.08 5.68s3.91 1.55 6.66-.04c2.74-1.59 5.86-7.26 5.86-7.26s-6.69.03-9.44 1.62z" stroke-miterlimit="10"/><path d="m26.48 17.17c2.54-2.62 2.1-7.11.75-9.03-3.32-4.7-9.34-3.46-13.62-6.22-3.17 7.43.58 16.79 10.35 15.65" stroke-miterlimit="10"/><path d="m28.13 21.74c-.86-7.83-6.92-10.77-10.96-14.23" stroke-miterlimit="10"/></g></svg>