<svg viewBox="0 0 50.91 50" xmlns="http://www.w3.org/2000/svg"><g fill="none" stroke="#000" stroke-width="2"><rect height="37.97" rx="1.81" stroke-linejoin="round" width="35.74" x="7.58" y="5.42"/><path d="m11.16 11.85h28.59v16.15h-28.59z" stroke-miterlimit="10"/><path d="m19.68 33.43h11.55v3.81h-11.55z" stroke-miterlimit="10"/><path d="m35.41 8.8h-19.92" stroke-linecap="round" stroke-miterlimit="10"/><g stroke-linejoin="round"><path d="m37.94 5.42v-2.43c0-1-.81-1.81-1.81-1.81h-21.35c-1 0-1.81.81-1.81 1.81v2.43"/><path d="m46.49 11.85h3.24v8.34h-3.24z"/><path d="m47.4 11.85h-4.43"/><path d="m1.17 11.85h3.24v8.34h-3.24z" transform="matrix(-1 -0 0 -1 5.58 32.04)"/><path d="m3.65 11.85h4.43"/><path d="m7.64 31.1h5.45c1.96 0 3.55 1.59 3.55 3.55v4.07h-9"/><path d="m43.32 31.1h-5.45c-1.96 0-3.55 1.59-3.55 3.55v4.07s9 0 9 0"/><path d="m17.88 43.58v2c0 1.79-1.45 3.24-3.24 3.24h-1.81c-1.79 0-3.24-1.45-3.24-3.24v-2"/><path d="m41.32 43.58v2c0 1.79-1.45 3.24-3.24 3.24h-1.81c-1.79 0-3.24-1.45-3.24-3.24v-2"/></g></g></svg>