<svg viewBox="0 0 48.9 50" xmlns="http://www.w3.org/2000/svg"><g fill="none" stroke="#000" stroke-width="2"><g stroke-miterlimit="10"><path d="m11.07 29.1c2.5 0 4.37-2.1 4.37-4.68v-1.56c0-2.59-1.87-4.68-4.37-4.68s-4.37 2.1-4.37 4.68v1.56c0 2.59 1.87 4.68 4.37 4.68z"/><path d="m44.96 18.95h-13.72s-8.47 5.41-8.47 5.41c-.59.59-1.61.17-1.61-.67l1.61-4.74h-1.67c-1.56 0-2.82-1.26-2.82-2.82v-12.12c0-1.56 1.26-2.82 2.82-2.82h23.86c1.56 0 2.82 1.26 2.82 2.82v12.11c0 1.56-1.26 2.82-2.82 2.82z"/><path d="m5.61 38.94v10.93"/></g><path d="m16.54 49.87v-10.93l2.97 1.48c.84.42 1.85.26 2.52-.41l3.26-3.26c2.41-2.23 2.87-4.37 1.09-6.56-2.23 1.91-4.33 3.6-5.47 4.37-1.46-.77-4.28-2.1-6.56-2.19h-6.56c-3.92 0-6.56 2.19-6.56 5.47v5.47c0 2.34.93 4.37 3.28 4.37h1.09" stroke-linejoin="round"/></g></svg>