<svg viewBox="0 0 50 50" xmlns="http://www.w3.org/2000/svg"><g fill="none" stroke="#000" stroke-miterlimit="10" stroke-width="2"><path d="m32.21 21.3c.57 1.11.89 2.37.89 3.7 0 4.47-3.63 8.1-8.1 8.1s-8.1-3.63-8.1-8.1 3.63-8.1 8.1-8.1c1.27 0 2.48.29 3.55.82"/><path d="m39.03 18.11c1.02 2.08 1.6 4.41 1.6 6.89 0 8.63-6.99 15.62-15.62 15.62s-15.62-6.99-15.62-15.62 6.99-15.62 15.62-15.62c2.37 0 4.61.53 6.62 1.47"/><path d="m46.15 13.93c1.73 3.31 2.72 7.07 2.72 11.07 0 13.18-10.69 23.87-23.87 23.87s-23.87-10.69-23.87-23.87 10.69-23.87 23.87-23.87c3.85 0 7.49.91 10.71 2.53"/><path d="m24.8 25.08 10.89-10.9" stroke-linecap="round"/><path d="m35.83 7.83-.1 6.49 6.43-.16 5.52-5.53-5.18-1.17-1.14-5.15z"/></g></svg>