<svg viewBox="0 0 44.17 50" xmlns="http://www.w3.org/2000/svg"><g fill="none" stroke="#000" stroke-miterlimit="10" stroke-width="2"><path d="m42.97 12.77v7.6c-4.38 0-8.41-1.46-11.65-3.91v17.37c0 4.12-1.66 7.85-4.33 10.57-2.74 2.78-6.53 4.49-10.72 4.49-8.32 0-15.06-6.75-15.06-15.06 0-6.71 4.39-12.4 10.45-14.35 1.45-.46 3-.72 4.61-.72.59 0 1.18.03 1.75.11v7.73c-.56-.15-1.15-.22-1.75-.22-1.75 0-3.35.6-4.61 1.61-1.73 1.35-2.83 3.46-2.83 5.83 0 4.1 3.33 7.44 7.44 7.44s7.43-3.34 7.43-7.44v-32.71h7.61v.3c.16 6.31 5.31 11.36 11.65 11.36z"/><path d="m31.32 1.11v.3c0-.1 0-.21 0-.3z"/><path d="m31.32 1.11v.3c0-.1 0-.21 0-.3z"/></g></svg>