<svg viewBox="0 0 68.61 50" xmlns="http://www.w3.org/2000/svg"><g fill="none" stroke="#000" stroke-miterlimit="10" stroke-width="2"><path d="m43.92 13.92h11.33c1.05 0 1.38.52 1.97 1.39l5.42 9.75h1.59c1.79 0 3.18 1.18 3.18 3.52v10.8c0 1.76-1.42 3.19-3.18 3.19h-3.18"/><path d="m21.64 1.19h22.28v41.37h-25.46"/><path d="m5.73 42.56h-3.41"/><path d="m61.29 42.58c0 3.51-2.86 6.35-6.38 6.35s-6.38-2.84-6.38-6.35 2.86-6.35 6.38-6.35 6.38 2.84 6.38 6.35z"/><path d="m18.49 42.58c0 3.51-2.86 6.35-6.38 6.35s-6.38-2.84-6.38-6.35 2.86-6.35 6.38-6.35 6.38 2.84 6.38 6.35z"/><path d="m43.92 42.56h4.64"/><path d="m47.1 26.65h9.17l3.19-1.59h3.18"/><path d="m.13 25.06h23.01"/><path d="m2.76 9.14h33.49"/><path d="m12.5 17.1h20.83"/><path d="m9.53 17.1h-3.19"/><path d="m18.46 1.19h-3.18"/></g></svg>