<svg viewBox="0 0 48.32 50" xmlns="http://www.w3.org/2000/svg"><g fill="none" stroke="#000" stroke-miterlimit="10" stroke-width="2"><path d="m10.52 28.78v-2.34l-7.03-8.2-2.14-3.59c-.75-1.87.23-5.15 2.14-5.78l3.51 5.86 4.69 4.69c.74.77 2.31 1.17 3.38 1.17h2.62c1.07 0 2.63-.4 3.38-1.17l4.69-4.69 3.51-5.86c1.91.64 2.89 3.92 2.14 5.78l-2.14 3.59-7.03 8.2v11.72"/><path d="m16.38 9.31c2.11 0 3.51 1.58 3.51 3.52v1.35c0 1.94-1.4 3.52-3.51 3.52s-3.51-1.58-3.51-3.52v-1.35c0-1.94 1.4-3.52 3.51-3.52z"/><path d="m31.94 36.45c-2.11 0-3.51-1.58-3.51-3.52v-1.35c0-1.94 1.4-3.52 3.51-3.52s3.51 1.58 3.51 3.52v1.35c0 1.94-1.4 3.52-3.51 3.52z"/><path d="m24.95 49.86v-5.86c0-3.87 4.13-4.69 6.98-4.69h1.31c.89 0 2.11-.61 3.38-1.17l4.69-2.34 3.51-8.2c1.91.64 2.89 5.09 2.14 6.95l-2.14 4.76-6.98 5.86v4.69"/><path d="m12.39 39.97c2.11 0 3.51-1.58 3.51-3.52v-1.35c0-1.94-1.4-3.52-3.51-3.52s-3.51 1.58-3.51 3.52v1.35c0 1.94 1.4 3.52 3.51 3.52z"/><path d="m5.36 49.86v-2.34c0-3.87 4.18-4.69 7.03-4.69s7.03.82 7.03 4.69v2.34"/><path d="m16.38 5.97v-5.85"/><path d="m21.11 7.14 3.52-3.51"/><path d="m11.74 7.14-3.51-3.51"/></g></svg>