<svg viewBox="0 0 53.63 50" xmlns="http://www.w3.org/2000/svg"><g fill="none" stroke="#000" stroke-width="2"><g stroke-linejoin="round"><path d="m15.17 10.45h-10.48c-1.98 0-3.49 1.52-3.49 3.49" stroke-linecap="round"/><path d="m44.27 17.43v-6.98h-10.47"/><path d="m40.78 17.43-16.3-16.29-16.29 16.29"/><path d="m32.63 17.43-5.67-5.7c-1.65 1.65-3.29 1.65-4.94 0l-5.7 5.7"/><path d="m50.09 39.55v9.31h-45.39c-1.98 0-3.49-1.52-3.49-3.49v-31.43c0 1.97 1.51 3.49 3.49 3.49h45.4v8.15" stroke-linecap="round"/><path d="m36.13 27.91c-3.54 0-5.82 2.61-5.82 5.82s2.28 5.82 5.82 5.82h12.8c1.93 0 3.49-1.56 3.49-3.49v-9.31c0-.64-.52-1.16-1.16-1.16h-1.16c0 1.24-1.27 2.33-2.33 2.33h-11.64" stroke-linecap="round"/></g><path d="m34.96 33.73h2.33" stroke-miterlimit="10"/></g></svg>