<svg viewBox="0 0 53.5 50" xmlns="http://www.w3.org/2000/svg"><g fill="none" stroke="#000" stroke-miterlimit="10" stroke-width="2"><path d="m4.54 43.32v-26.65c0-1.23.99-2.22 2.22-2.22h9.99"/><path d="m48.96 27.78v15.54"/><path d="m18.98 17.88v-13.42c0-1.84 1.49-3.33 3.33-3.33h26.65c1.84 0 3.33 1.49 3.33 3.33v17.77c0 1.84-1.49 3.33-3.33 3.33h-8.88l-8.1 8.1c-.7.7-1.9.2-1.9-.79v-7.31h-4.11"/><path d="m27.86 41.1v-1.79c0-3.1-6.41-4.88-8.88-4.88s-8.88 1.78-8.88 4.88v1.79"/><path d="m18.98 20.25c-2.44 0-4.44 1.98-4.44 4.42v2.02c0 2.44 2 4.42 4.44 4.42s4.44-1.98 4.44-4.42v-2.02c0-2.44-2-4.42-4.44-4.42z"/><path d="m52.29 43.32h-19.99l-2.22 2.22h-5.55l-2.22-2.22h-21.1v1.11c0 2.45 1.99 4.44 4.44 4.44h42.2c2.45 0 4.44-1.99 4.44-4.44z"/></g></svg>