<svg viewBox="0 0 50 50" xmlns="http://www.w3.org/2000/svg"><g fill="none" stroke="#000" stroke-width="2"><path d="m25 1.17c-13.21 0-23.86 10.65-23.86 23.86s10.65 23.86 23.86 23.86 23.86-10.74 23.86-23.86-10.65-23.86-23.86-23.86z" stroke-miterlimit="10"/><path d="m48.86 25.03c0 13.12-10.65 23.86-23.86 23.86s-23.86-10.74-23.86-23.86 10.65-23.86 23.86-23.86 23.86 10.65 23.86 23.86z" stroke-miterlimit="10"/><g stroke-linejoin="round"><path d="m38.9 38.23-4.03 2.1-.98-1.88-2.32-4.42s-.58-1.14-.58-1.14h-10.12v-10.3c-3.2 1.21-5.46 4.29-5.46 7.91 0 4.69 3.79 8.48 8.47 8.48.48 0 .93-.04 1.38-.11.31-.06.61-.12.9-.21.17-.04.32-.08.49-.14l2.01 3.85c-1.47.59-3.09.92-4.78.92-7.06 0-12.78-5.72-12.78-12.78 0-6.02 4.16-11.07 9.77-12.41.96-.24 1.97-.36 3.01-.36h10.17v4.3h-8.69v6.31h8.41l.29.55 2.29 4.42 2.56 4.91z"/><path d="m23.17 14.42c1.71 0 2.99-1.48 2.99-3.3v-1.1c0-1.82-1.28-3.3-2.99-3.3s-2.99 1.48-2.99 3.3v1.1c0 1.82 1.28 3.3 2.99 3.3z"/></g></g></svg>