<svg viewBox="0 0 45.34 50" xmlns="http://www.w3.org/2000/svg"><g fill="none" stroke="#000" stroke-miterlimit="10" stroke-width="2"><path d="m22.37 41.91c1.86 0 3.1-1.59 3.1-3.54v-1.18c0-1.96-1.24-3.54-3.1-3.54s-3.1 1.59-3.1 3.54v1.18c0 1.96 1.24 3.54 3.1 3.54z"/><path d="m28.57 49.83v-2.24c0-2.56-4.05-3.1-6.2-3.1s-6.2.54-6.2 3.1v2.24"/><path d="m7.87 43.98c1.86 0 3.1-1.59 3.1-3.54v-1.18c0-1.96-1.24-3.54-3.1-3.54s-3.1 1.59-3.1 3.54v1.18c0 1.96 1.24 3.54 3.1 3.54z"/><path d="m13.04 47.79c-1.35-.97-3.7-1.23-5.17-1.23-2.15 0-6.2.54-6.2 3.1v.17"/><path d="m36.47 43.98c-1.86 0-3.1-1.59-3.1-3.54v-1.18c0-1.96 1.24-3.54 3.1-3.54s3.1 1.59 3.1 3.54v1.18c0 1.96-1.24 3.54-3.1 3.54z"/><path d="m31.3 47.79c1.35-.97 3.7-1.23 5.17-1.23 2.15 0 6.2.54 6.2 3.1v.17"/><path d="m5.83 1.27h23.77c1.71 0 3.1 1.39 3.1 3.1v14.47c0 1.71-1.39 3.1-3.1 3.1h-13.44l-4.34 5.79c-.6.79-1.86.37-1.86-.62v-5.17h-4.13c-1.71 0-3.1-1.39-3.1-3.1v-14.47c0-1.71 1.39-3.1 3.1-3.1z"/><path d="m20.55 24.83c.47 1.11 1.57 1.89 2.86 1.89h8.27l4.38 5.11c.62.73 1.82.29 1.82-.67v-4.44h3.1c1.71 0 3.1-1.39 3.1-3.1v-14.47c0-1.71-1.39-3.1-3.1-3.1h-5.96"/></g></svg>