<svg viewBox="0 0 54.01 50" xmlns="http://www.w3.org/2000/svg"><path d="m15.23 2.31 11.96 15.73 3.55 4.67 19 24.98h-11.33l-12.94-17.2-3.63-4.82-17.59-23.36h10.97m1-2h-15.98l19.99 26.57 3.63 4.82 13.54 17.99h16.36l-21.44-28.19-3.55-4.67z"/><path d="m3 48.69 17.19-20.21 2.4 3.19-14.14 17.02z"/><path d="m20.14 30.08 1.18 1.56-13.33 16.05h-2.82l14.98-17.61m.09-3.2-19.4 22.81h8.08l14.95-17.99z"/><path d="m30.06 16.87 13.23-15.56h4.51l-15.44 18.58z"/><path d="m45.67 2.31-13.27 15.98-1.05-1.39 12.41-14.59h1.92m4.25-2h-7.1l-14.06 16.52 3.55 4.67z"/></svg>